<?xml version="1.0" encoding="UTF-8"?>
<svg version="1.1" xmlns="http://www.w3.org/2000/svg" width="2000" height="546">
<path d="M0 0 C1.67703266 1.46740358 3.34418034 2.94620088 5 4.4375 C5.825 5.12070313 6.65 5.80390625 7.5 6.5078125 C22.76312226 19.43376917 33.00721135 36.88376932 40 55.4375 C35.16932578 61.41228127 29.79496608 66.40523637 24 71.4375 C23.48937012 71.88222656 22.97874023 72.32695312 22.45263672 72.78515625 C18.33015945 76.36970203 14.17241631 79.9112776 10 83.4375 C9.34080566 83.99630859 8.68161133 84.55511719 8.00244141 85.13085938 C-32.04702803 118.97548144 -83.25747945 155.03070816 -137.8125 154.75 C-138.94961426 154.74508545 -140.08672852 154.7401709 -141.25830078 154.73510742 C-163.30019672 154.42875178 -183.26123923 146.96120919 -199.21875 131.4375 C-203.5520107 126.96099102 -206.82790614 121.78341112 -210 116.4375 C-209.505 115.4475 -209.505 115.4475 -209 114.4375 C-208.443125 114.84742188 -207.88625 115.25734375 -207.3125 115.6796875 C-202.22944663 119.26873532 -198.12633446 121.32362101 -192 122.4375 C-192.14074951 121.81963623 -192.28149902 121.20177246 -192.42651367 120.56518555 C-194.10528376 112.44804734 -194.35913485 104.51683684 -194.3125 96.25 C-194.31034485 95.56363464 -194.3081897 94.87726929 -194.30596924 94.17010498 C-194.25449171 83.95940395 -193.87841075 74.30477928 -191 64.4375 C-190.80664062 63.77218262 -190.61328125 63.10686523 -190.4140625 62.42138672 C-185.56439016 46.22961803 -177.81116069 31.43663369 -167 18.4375 C-166.24203125 17.51582031 -165.4840625 16.59414062 -164.703125 15.64453125 C-145.51969927 -6.57940477 -116.40082116 -21.7814261 -87.11132812 -24.41748047 C-56.03627595 -26.55191398 -24.72268285 -19.84047237 0 0 Z " fill="#1B75BB" transform="translate(423,236.5625)"/>
<path d="M0 0 C-1.16402344 1.60101563 -1.16402344 1.60101563 -2.3515625 3.234375 C-10.1224763 13.94570035 -17.75178713 24.74882246 -25.32421875 35.60107422 C-27.89528228 39.28162058 -30.47576397 42.95545421 -33.0625 46.625 C-33.54074219 47.30344971 -34.01898438 47.98189941 -34.51171875 48.6809082 C-38.86184893 54.83508869 -43.2796389 60.94006739 -47.72485352 67.02587891 C-48.49720337 68.08814697 -48.49720337 68.08814697 -49.28515625 69.171875 C-49.73769775 69.7915918 -50.19023926 70.41130859 -50.65649414 71.04980469 C-52.09838625 73.04606142 -52.09838625 73.04606142 -53.30053711 75.60058594 C-55.52323671 78.73874019 -57.24152932 79.15622399 -60.90625 80.21875 C-62.71488525 80.77079102 -62.71488525 80.77079102 -64.56005859 81.33398438 C-65.20191101 81.52307373 -65.84376343 81.71216309 -66.50506592 81.90698242 C-100.22103235 91.9294493 -130.71394325 109.55099892 -156 134 C-156.50998535 134.4842041 -157.0199707 134.9684082 -157.54541016 135.46728516 C-159.081563 136.92689348 -160.60522952 138.39835781 -162.125 139.875 C-163.01445312 140.73867187 -163.90390625 141.60234375 -164.8203125 142.4921875 C-166.9634161 144.95790885 -168.01471154 146.91128673 -169 150 C-167.35 151.98 -165.7 153.96 -164 156 C-160.86072732 154.64009955 -159.12472649 153.22394125 -157 150.5625 C-134.88055874 124.53685954 -102.05850241 106.811824 -71.0625 93.6875 C-70.29381592 93.36193115 -69.52513184 93.0363623 -68.7331543 92.70092773 C-66.49866956 91.77252696 -64.25551185 90.87602688 -62 90 C-60.81639893 89.53907959 -60.81639893 89.53907959 -59.60888672 89.06884766 C-51.91373684 86.26208189 -51.91373684 86.26208189 -48 88 C-45.640625 90.1171875 -45.640625 90.1171875 -43.25 92.875 C-42.38890625 93.86113281 -41.5278125 94.84726563 -40.640625 95.86328125 C-37.31128535 99.79381997 -34.03881411 103.76954744 -30.8125 107.78515625 C-29.03873643 110.02753567 -29.03873643 110.02753567 -27 112 C-27.53571429 115.53571429 -27.53571429 115.53571429 -29 117 C-30.78316245 117.31031217 -32.57601831 117.56521546 -34.37109375 117.796875 C-54.19631843 120.46650315 -71.98382791 124.20850929 -90 133 C-90.63534668 133.30808594 -91.27069336 133.61617187 -91.92529297 133.93359375 C-106.70728524 141.20206636 -119.17488781 150.59721325 -131 162 C-131.77859375 162.71542969 -132.5571875 163.43085938 -133.359375 164.16796875 C-153.33075629 183.04163228 -166.97259964 211.02110175 -172.80078125 237.66015625 C-174.26116822 241.72735774 -175.9838653 243.24755247 -179.375 245.875 C-180.33148438 246.63554687 -181.28796875 247.39609375 -182.2734375 248.1796875 C-184.73527165 249.82326159 -186.19155776 250.40713162 -189 251 C-195.77651539 243.23895224 -202.50336992 235.46037227 -208.98828125 227.453125 C-211.90735976 223.89354965 -214.93765904 220.43651767 -218 217 C-221.7277987 217.59634798 -224.64172973 218.65771739 -227.984375 220.3984375 C-228.92023438 220.87796875 -229.85609375 221.3575 -230.8203125 221.8515625 C-232.75794043 222.85912902 -234.69544252 223.86693757 -236.6328125 224.875 C-242.33426361 227.79601742 -247.86520311 230.14441329 -254 232 C-251.39986574 236.09107699 -251.39986574 236.09107699 -248.25 239.75 C-247 241 -247 241 -247 243 C-246.41992188 242.95359375 -245.83984375 242.9071875 -245.2421875 242.859375 C-239.58769173 242.59811117 -236.47108042 243.18322403 -232 247 C-229.43383368 250.84924948 -229.44902324 253.4349304 -229 258 C-224.545 259.485 -224.545 259.485 -220 261 C-222.8391718 264.79898639 -225.84876722 267.68432996 -229.5625 270.625 C-233.96030051 274.11458286 -233.96030051 274.11458286 -238 278 C-238.99 277.67 -239.98 277.34 -241 277 C-241 274.03 -241 271.06 -241 268 C-241.845625 268.12375 -242.69125 268.2475 -243.5625 268.375 C-248.29578694 267.85864142 -250.89356523 265.51720301 -254 262 C-255.03185466 258.90443602 -254.8916059 257.59185352 -254.5625 254.4375 C-254.4118695 247.61895941 -258.5087046 243.71185009 -263 239 C-268.01157275 239.63244391 -272.11468174 241.81969794 -276.58203125 244.03515625 C-277.39621017 244.43327011 -278.2103891 244.83138397 -279.04924011 245.24156189 C-281.63969744 246.50977893 -284.22611104 247.78600973 -286.8125 249.0625 C-288.57200465 249.92566239 -290.3317675 250.78829868 -292.09179688 251.65039062 C-296.39754704 253.76084229 -300.69968934 255.87848809 -305 258 C-306 255 -306 255 -304.85107422 252.27050781 C-304.2582666 251.17577148 -303.66545898 250.08103516 -303.0546875 248.953125 C-302.57331329 248.05527283 -302.57331329 248.05527283 -302.08221436 247.13928223 C-301.0230687 245.17064248 -299.94931682 243.21039586 -298.875 241.25 C-298.13133799 239.87568284 -297.38834279 238.50100465 -296.64599609 237.12597656 C-291.90365572 228.36821546 -287.02671966 219.69039652 -282.07763672 211.04785156 C-276.7773694 201.73399359 -271.81097533 192.24969422 -266.82528687 182.76531982 C-262.15762419 173.89156322 -257.42613801 165.07405131 -252.4375 156.375 C-247.24883924 147.32562526 -242.31205485 138.15841216 -237.4375 128.9375 C-237.07329956 128.24857666 -236.70909912 127.55965332 -236.3338623 126.84985352 C-235.79106628 125.82299438 -235.79106628 125.82299438 -235.23730469 124.77539062 C-234.5176324 123.41403381 -233.79790645 122.05270535 -233.078125 120.69140625 C-232.72723816 120.02775055 -232.37635132 119.36409485 -232.01483154 118.68032837 C-228.54424572 112.12433616 -225.06437427 105.56868957 -221.40652466 99.11488342 C-218.90487165 94.65543682 -216.62457721 90.23156368 -214.66552734 85.50610352 C-210.56016603 76.09675157 -206.71269091 68.75585602 -196.98048401 64.53479004 C-191.69750641 62.61933542 -186.34929817 61.06694411 -180.9375 59.5625 C-178.59629014 58.84326405 -176.25776179 58.11524646 -173.921875 57.37890625 C-169.19739683 55.89776523 -164.46387786 54.45534766 -159.71826172 53.04345703 C-151.06648803 50.44585274 -142.56781006 47.45475659 -134.06399536 44.41378784 C-129.72748609 42.86828994 -125.37894342 41.35743555 -121.03125 39.84375 C-119.71266747 39.38372841 -119.71266747 39.38372841 -118.3674469 38.91441345 C-106.91915412 34.92125749 -95.45887903 30.96264668 -84 27 C-67.30619202 21.22637813 -50.61690668 15.44010671 -33.9375 9.625 C-33.04426025 9.31385254 -32.15102051 9.00270508 -31.23071289 8.68212891 C-29.51511307 8.0844113 -27.79966334 7.48626266 -26.0843811 6.88763428 C-24.49475045 6.33298996 -22.90473887 5.77943586 -21.31430054 5.22711182 C-16.20723927 3.44693018 -11.15000541 1.56205731 -6.13110352 -0.45556641 C-3.70366016 -1.07570602 -2.34139062 -0.81280227 0 0 Z M-124.44262695 63.64306641 C-126.11631096 64.21959457 -126.11631096 64.21959457 -127.82380676 64.80776978 C-129.03308334 65.23472137 -130.24235992 65.66167297 -131.48828125 66.1015625 C-132.75056009 66.54019334 -134.01311278 66.97803684 -135.27592468 67.41513062 C-138.6123169 68.57241015 -141.94476589 69.74066489 -145.27655029 70.91113281 C-148.61494308 72.08167699 -151.95707234 73.24144377 -155.29882812 74.40234375 C-164.42400876 77.57418055 -164.42400876 77.57418055 -173.5332489 80.79138184 C-175.96414865 81.63886973 -178.38918827 82.44784058 -180.84236145 83.2232666 C-182.09014877 83.63185913 -183.3379361 84.04045166 -184.62353516 84.46142578 C-185.75095123 84.81729767 -186.87836731 85.17316956 -188.03994751 85.53982544 C-193.71051578 88.33707973 -195.64171917 93.68411945 -198.0625 99.25 C-198.91747899 101.0550103 -199.77252945 102.85999182 -200.63227844 104.66273499 C-201.51218126 106.52094486 -202.3721043 108.38757863 -203.23144531 110.25537109 C-204.97110872 113.99174612 -206.86196054 117.63537008 -208.8046875 121.26953125 C-209.71915649 122.98317871 -209.71915649 122.98317871 -210.65209961 124.73144531 C-211.82655546 126.92264941 -213.00182576 129.11341721 -214.17797852 131.30371094 C-214.69545654 132.28758789 -215.21293457 133.27146484 -215.74609375 134.28515625 C-216.20685303 135.15019775 -216.6676123 136.01523926 -217.14233398 136.90649414 C-217.42536377 137.59735107 -217.70839355 138.28820801 -218 139 C-217.67 139.66 -217.34 140.32 -217 141 C-211.5378716 133.55197374 -206.19527865 126.03093589 -200.9375 118.4375 C-199.59259022 116.4985992 -198.24753926 114.55979632 -196.90234375 112.62109375 C-196.25765137 111.68894043 -195.61295898 110.75678711 -194.94873047 109.79638672 C-193.62645327 107.89894711 -192.29167817 106.01016781 -190.94580078 104.12939453 C-189.98456299 102.78337158 -189.98456299 102.78337158 -189.00390625 101.41015625 C-188.42584229 100.60843994 -187.84777832 99.80672363 -187.25219727 98.98071289 C-185.82187823 97.10880472 -185.82187823 97.10880472 -186 95 C-184.7620166 94.61980713 -184.7620166 94.61980713 -183.49902344 94.23193359 C-179.52459764 92.83262069 -175.80838023 91.11389727 -172.015625 89.2890625 C-171.25003265 88.92435852 -170.48444031 88.55965454 -169.69564819 88.18389893 C-168.05871293 87.40382003 -166.42249093 86.62224295 -164.78692627 85.83929443 C-160.52026036 83.79706375 -156.24830872 81.76595234 -151.9765625 79.734375 C-150.70242996 79.12799698 -150.70242996 79.12799698 -149.40255737 78.5093689 C-138.31499112 73.23865916 -127.16392514 68.10673937 -116 63 C-119.69331824 61.76889392 -120.8160309 62.37774413 -124.44262695 63.64306641 Z M-219 141 C-218 143 -218 143 -218 143 Z " fill="#8BC53F" transform="translate(382,76)"/>
<path d="M0 0 C0.66 0 1.32 0 2 0 C4.6820446 16.88908748 4.80945469 37.51304358 0 54 C-0.19335938 54.66531738 -0.38671875 55.33063477 -0.5859375 56.01611328 C-5.61616673 72.81071348 -13.74350473 87.61050642 -25 101 C-25.70640625 101.87011719 -26.4128125 102.74023438 -27.140625 103.63671875 C-45.7344984 125.57060275 -75.38389976 140.28955098 -103.88867188 142.85498047 C-133.2234288 144.86987936 -161.55336006 138.87268094 -186 122 C-185.505 121.01 -185.505 121.01 -185 120 C-184.40316406 120.144375 -183.80632812 120.28875 -183.19140625 120.4375 C-154.09331502 126.66354032 -126.24396966 116.0828702 -101.6953125 100.96484375 C-81.51847672 87.78439129 -63.82730241 71.87378388 -46.77966309 54.95489502 C-45.77671214 53.95998785 -44.77228577 52.96656535 -43.76623535 51.97479248 C-37.80767074 46.09187713 -32.21142234 40.04941031 -27.0065918 33.48022461 C-24.94781937 30.93550274 -22.78563156 28.52666319 -20.5625 26.125 C-14.60836754 19.58794548 -9.30272489 12.54209794 -4.10546875 5.39453125 C-3.57566406 4.66621094 -3.04585937 3.93789063 -2.5 3.1875 C-2.0565625 2.56230469 -1.613125 1.93710937 -1.15625 1.29296875 C-0.58390625 0.65294922 -0.58390625 0.65294922 0 0 Z " fill="#8BC53F" transform="translate(466,310)"/>
<path d="M0 0 C7.45078075 -0.07010043 14.9015265 -0.12311149 22.35256386 -0.15543652 C25.81393872 -0.17096591 29.27508485 -0.19196487 32.73632812 -0.22631836 C36.73309278 -0.26573007 40.72962445 -0.27981405 44.7265625 -0.29296875 C46.55400497 -0.31619453 46.55400497 -0.31619453 48.41836548 -0.33988953 C61.00731691 -0.34230662 73.57637978 0.85679485 82.96484375 9.890625 C89.69802244 17.10572855 90.47032191 23.58197116 90.30859375 33.3046875 C89.58880481 41.92393223 85.27621441 48.21431136 79 54 C76.42586644 55.8573433 73.79174192 57.49173423 71 59 C84.44477915 87.33999585 84.44477915 87.33999585 106.3125 107.8125 C107.63701172 108.44091797 107.63701172 108.44091797 108.98828125 109.08203125 C109.65214844 109.38496094 110.31601562 109.68789063 111 110 C110.67 112.31 110.34 114.62 110 117 C80.88414958 117.53807526 80.88414958 117.53807526 70.4375 108.875 C63.11307206 100.23593115 57.92684912 90.56888015 52.71875 80.5703125 C48.60263025 72.75311263 48.60263025 72.75311263 43 66 C40.91890154 65.33416488 40.91890154 65.33416488 39 65 C39.11894877 69.57168699 39.24323815 74.14318732 39.37231445 78.71459961 C39.41542245 80.26729464 39.45711268 81.82002974 39.49731445 83.37280273 C39.5556069 85.61454303 39.61912578 87.85608604 39.68359375 90.09765625 C39.70030624 90.78336197 39.71701874 91.46906769 39.73423767 92.17555237 C39.8658112 96.53043364 40.31414284 100.70668063 41 105 C44.96 105.99 48.92 106.98 53 108 C53 110.64 53 113.28 53 116 C35.51 116 18.02 116 0 116 C0 113.36 0 110.72 0 108 C0.69867187 107.81824219 1.39734375 107.63648438 2.1171875 107.44921875 C3.02726563 107.19785156 3.93734375 106.94648438 4.875 106.6875 C5.77992188 106.44386719 6.68484375 106.20023437 7.6171875 105.94921875 C10.32113319 105.13330148 10.32113319 105.13330148 12 102 C12.20503786 99.18259543 12.29369758 96.46322297 12.29052734 93.64477539 C12.29724457 92.79244827 12.30396179 91.94012115 12.31088257 91.06196594 C12.3299026 88.24047032 12.33378865 85.41921202 12.3359375 82.59765625 C12.3423622 80.63854371 12.34909031 78.67943215 12.35610962 76.72032166 C12.36809209 72.61210912 12.3717894 68.50398074 12.37060547 64.39575195 C12.37040212 59.12841743 12.39771601 53.86162151 12.43214989 48.59441471 C12.4543728 44.5478212 12.45844444 40.5013583 12.45738602 36.45471001 C12.45974848 34.51260965 12.46860815 32.57050605 12.48405075 30.62846565 C12.50361946 27.9134648 12.49790909 25.1996384 12.48583984 22.48461914 C12.49707886 21.68084839 12.50831787 20.87707764 12.51989746 20.0489502 C12.47922763 16.45362466 12.32096023 14.4194453 10.10342407 11.52146912 C7.92302611 9.9443225 6.37279326 9.27455865 3.75 8.75 C2.5125 8.5025 1.275 8.255 0 8 C0 5.36 0 2.72 0 0 Z M39 11 C38.56338374 13.01337365 38.56338374 13.01337365 38.65942383 15.35791016 C38.65965042 16.25869293 38.65987701 17.15947571 38.66011047 18.08755493 C38.67559433 19.06155243 38.69107819 20.03554993 38.70703125 21.0390625 C38.71127609 22.03505463 38.71552094 23.03104675 38.71989441 24.05722046 C38.7367232 27.24675225 38.77438324 30.43565833 38.8125 33.625 C38.8275414 35.78384506 38.84123075 37.9427 38.85351562 40.1015625 C38.88664033 45.40125612 38.93688104 50.70058337 39 56 C46.41535199 56.06656607 52.05272482 55.38290334 57.9375 50.625 C63.67893289 43.31772178 62.82585755 33.85828137 62 25 C60.86614525 19.88233128 59.23491248 16.29990787 55.625 12.5 C49.98253199 9.27573257 44.69929442 7.20047038 39 11 Z " fill="#1B75BB" transform="translate(717,205)"/>
<path d="M0 0 C7.7115981 -0.04671641 15.42316191 -0.08206601 23.13486671 -0.10362434 C26.7172413 -0.11398076 30.29951778 -0.12798738 33.88183594 -0.15087891 C37.35077223 -0.17290255 40.81961527 -0.18462949 44.28861618 -0.18975449 C46.2302534 -0.19514911 48.17185407 -0.21071234 50.11343384 -0.22659302 C70.32561837 -0.22909529 88.71414463 3.24439934 103.8125 17.4375 C115.4735094 29.83758747 116.76681839 44.02525468 116.31640625 60.36328125 C115.60029631 76.00219822 109.49409708 89.28705515 98 100 C82.55295338 112.79755319 64.90022839 116.1778475 45.41015625 116.09765625 C43.46066322 116.09553383 43.46066322 116.09553383 41.4717865 116.09336853 C38.03756747 116.08957334 34.60339158 116.07976908 31.16918945 116.06866455 C27.65641869 116.05838555 24.14364088 116.05385708 20.63085938 116.04882812 C13.75388867 116.03814376 6.87694641 116.02110388 0 116 C0 113.36 0 110.72 0 108 C3.63 107.01 7.26 106.02 11 105 C12.50489411 99.63038304 13.29222583 94.75855921 13.25878906 89.16625977 C13.2622937 88.42852325 13.26579834 87.69078674 13.26940918 86.93069458 C13.27813575 84.51749972 13.27240915 82.10460355 13.265625 79.69140625 C13.2669744 77.99804122 13.26891723 76.30467658 13.27142334 74.61131287 C13.27436244 71.07181083 13.27011669 67.53241013 13.26074219 63.99291992 C13.24935715 59.47631272 13.25590883 54.95994352 13.26788712 50.44334507 C13.27514606 46.94901263 13.27279918 43.45473574 13.26763153 39.96040154 C13.26630572 38.29597889 13.26790493 36.63155105 13.27259064 34.96713448 C13.29062887 26.75908286 13.2951686 18.95844585 11 11 C7.37 10.01 3.74 9.02 0 8 C0 5.36 0 2.72 0 0 Z M40 12 C38.80218396 15.59344813 38.88830419 18.83640181 38.93066406 22.57324219 C38.93545273 23.34272186 38.94024139 24.11220154 38.94517517 24.90499878 C38.96287783 27.45237448 38.98862518 29.99958183 39.015625 32.546875 C39.03232104 34.31943735 39.04898316 36.09200002 39.06561279 37.86456299 C39.10210186 41.58359041 39.14332495 45.30253499 39.18701172 49.02148438 C39.24188936 53.77707319 39.27849602 58.53261335 39.31064224 63.28840256 C39.33857313 66.95177282 39.37963331 70.61491276 39.42424774 74.27811432 C39.44339052 76.03066692 39.45771326 77.78327927 39.46704865 79.53591156 C39.48145227 81.99404927 39.51441285 84.45129762 39.55175781 86.90917969 C39.55189377 87.6273587 39.55202972 88.34553772 39.5521698 89.08547974 C39.66895527 94.75148853 40.74909292 99.82170283 44.9375 103.875 C50.83496455 107.09179884 58.41509538 106.97724095 64.765625 105.24609375 C74.01923227 101.71365385 78.61139603 96.81514975 83 88 C86.76442933 78.21829753 87.20254782 68.68673204 87.25 58.3125 C87.270625 57.20455078 87.29125 56.09660156 87.3125 54.95507812 C87.37653337 41.25994061 84.28692936 28.36807795 74.8125 18.125 C66.22804752 10.18684017 57.90045986 9.42689825 46.66015625 9.6640625 C42.91129576 9.7151196 42.91129576 9.7151196 40 12 Z " fill="#1B75BB" transform="translate(1039,204)"/>
<path d="M0 0 C12.77868438 9.25658162 21.07883387 22.44604795 24.4375 37.87890625 C26.50039846 54.92939349 24.89304695 72.62469621 14.8203125 87.04296875 C12.0019891 90.57615885 9.0093115 93.84268126 5.8203125 97.04296875 C5.26730469 97.61917969 4.71429687 98.19539063 4.14453125 98.7890625 C-6.25635565 108.72539366 -21.27712918 111.89052842 -35.1796875 112.04296875 C-48.89660559 111.27139211 -60.2184756 107.29037964 -71.1796875 99.04296875 C-71.79457031 98.59308594 -72.40945313 98.14320313 -73.04296875 97.6796875 C-83.57209566 89.39179381 -89.91300169 76.07605777 -92.1796875 63.04296875 C-93.82546555 42.90523633 -90.54168969 24.80386182 -77.3046875 9.04296875 C-57.05354033 -11.95822091 -24.56007486 -15.35823348 0 0 Z M-52.1796875 7.04296875 C-64.01844569 23.77427497 -65.32533918 45.05714353 -61.9921875 64.79296875 C-59.46929167 78.20552244 -55.0738751 90.49854534 -43.4921875 98.54296875 C-37.9730586 102.07207426 -32.64731706 102.78882389 -26.1796875 102.04296875 C-19.98481709 100.17663756 -15.61275514 96.46001883 -12.1796875 91.04296875 C-6.07393945 79.05134723 -4.78629604 67.7384031 -4.8046875 54.41796875 C-4.80523132 53.75444397 -4.80577515 53.09091919 -4.80633545 52.4072876 C-4.864773 36.90450564 -6.71224588 20.9003489 -17.25 8.6328125 C-22.92830216 3.18203813 -28.48226856 0.61816291 -36.2421875 -0.33203125 C-42.3558207 0.44843256 -47.83720946 2.58621498 -52.1796875 7.04296875 Z " fill="#1B75BB" transform="translate(1770.1796875,210.95703125)"/>
<path d="M0 0 C5.10421698 -0.24894883 10.20483971 -0.42942339 15.3137207 -0.54931641 C17.04742017 -0.59932542 18.78070378 -0.66736402 20.51293945 -0.75439453 C34.86657327 -1.45699106 34.86657327 -1.45699106 40.04150391 2.07714844 C42.32523031 4.60144054 44.18018918 7.12846783 46 10 C46.8353125 11.0003125 47.670625 12.000625 48.53125 13.03125 C49.50578125 14.25328125 49.50578125 14.25328125 50.5 15.5 C53.4081338 19.0947765 56.38541332 22.58260628 59.5 26 C63.41891252 30.29991791 67.09170869 34.75919547 70.75 39.28125 C72.93501569 41.92147729 75.19171391 44.4672972 77.5 47 C81.38483919 51.26384789 85.05266533 55.66711199 88.6640625 60.1640625 C91.69709126 63.84630143 94.84387002 67.42320186 98 71 C98.02518048 66.18432982 98.04308077 61.36869998 98.05493164 56.55297852 C98.05988474 54.92308889 98.06664905 53.29320352 98.07543945 51.66333008 C98.12104767 42.97362335 98.06434243 34.30125716 97.62109375 25.62109375 C97.59048355 24.92589127 97.55987335 24.23068878 97.52833557 23.51441956 C97.30087707 19.65239292 96.80693282 16.44292356 95 13 C90.14951505 9.72592266 84.6712395 8.95267857 79 8 C79 5.36 79 2.72 79 0 C93.85 0 108.7 0 124 0 C124 2.64 124 5.28 124 8 C123.31292969 8.15855469 122.62585937 8.31710938 121.91796875 8.48046875 C121.01691406 8.71378906 120.11585937 8.94710937 119.1875 9.1875 C118.29417969 9.40792969 117.40085937 9.62835938 116.48046875 9.85546875 C113.20974857 11.3646357 112.56021892 12.77267363 111 16 C110.42881015 19.34207773 110.42881015 19.34207773 110.33227539 23.0390625 C110.28307874 24.07941147 110.28307874 24.07941147 110.23288822 25.14077759 C109.84055087 34.21292113 109.76751885 43.29593685 109.68359375 52.375 C109.66296186 54.28027736 109.64196407 56.18555079 109.62062073 58.09082031 C109.5660425 63.04883594 109.51635645 68.00688831 109.46777344 72.96496582 C109.41708198 78.04698872 109.36164745 83.1289598 109.30664062 88.2109375 C109.19984788 98.14058049 109.09823577 108.07026892 109 118 C107.56248036 118.06660282 106.12406786 118.11411819 104.68554688 118.15356445 C103.48424133 118.19632256 103.48424133 118.19632256 102.25866699 118.23994446 C100 118 100 118 97.03125 115.54296875 C96.15972922 114.4459799 95.31680451 113.32581604 94.5 112.1875 C94.04061035 111.59727051 93.5812207 111.00704102 93.10791016 110.39892578 C92.16830424 109.19039705 91.23930948 107.97354107 90.32128906 106.74853516 C88.41575837 104.22684062 86.39435435 101.8059649 84.375 99.375 C82.19038725 96.69458862 80.00924765 94.01137661 77.828125 91.328125 C73.30588185 85.77955717 68.72116721 80.29085205 64.08642578 74.83642578 C60.44045068 70.53888375 56.8702272 66.18342199 53.3125 61.8125 C50.28359369 58.12869503 47.19662341 54.49595753 44.10791016 50.86230469 C40.23993955 46.3038692 36.448651 41.6876628 32.6796875 37.046875 C31.16253021 35.12984433 31.16253021 35.12984433 30 34 C29.95357826 42.11054088 29.91808095 50.22102588 29.89637566 58.33166695 C29.88595613 62.0981123 29.87183054 65.86446648 29.84912109 69.63085938 C29.82732717 73.26833869 29.81541761 76.90573052 29.81024551 80.54327011 C29.80656148 81.92828625 29.79936753 83.31329781 29.78853989 84.69827652 C29.7739387 86.64401801 29.77318234 88.58984827 29.77294922 90.53564453 C29.76628738 92.19444138 29.76628738 92.19444138 29.75949097 93.88674927 C30.09207852 98.19190333 30.67138123 101.83745857 34 104.75 C38.21422769 106.5059282 42.50924804 107.25880793 47 108 C47 110.64 47 113.28 47 116 C32.15 116 17.3 116 2 116 C2 113.36 2 110.72 2 108 C6.29 107.01 10.58 106.02 15 105 C17.15540615 88.72531939 17.37559504 72.49127003 17.37060547 56.10473633 C17.37039953 52.39069085 17.39806677 48.67738709 17.43214989 44.9635191 C17.45441849 42.06804469 17.45844358 39.17275196 17.45738602 36.2772007 C17.45972791 34.90695369 17.46847088 33.53670058 17.48405075 32.16654015 C17.62424289 21.86745544 17.62424289 21.86745544 13 13 C9.09821029 9.85689163 4.80598542 9.05894594 0 8 C0 5.36 0 2.72 0 0 Z " fill="#1B75BB" transform="translate(1802,204)"/>
<path d="M0 0 C0.99 15.345 0.99 15.345 2 31 C-0.70879335 32.35439668 -3.00933268 32.06501451 -6 32 C-6.45439453 30.69675781 -6.45439453 30.69675781 -6.91796875 29.3671875 C-10.8852694 18.22830039 -10.8852694 18.22830039 -19.625 10.75 C-29.66773178 6.21091219 -41.19317227 5.51972481 -51.5859375 9.04296875 C-60.34283792 12.51455549 -64.91991301 17.44731131 -69 26 C-76.1129652 44.04469049 -75.81277605 68.84943942 -68.5234375 86.765625 C-64.64237304 95.57296276 -59.88116994 102.31140363 -50.75 105.9375 C-44.04991426 107.80378686 -36.42593452 108.18899084 -29.8125 105.8125 C-26.8263134 104.32188028 -26.8263134 104.32188028 -26.3347168 101.734375 C-25.73437285 96.83003353 -25.81544442 91.93484873 -25.8125 87 C-25.80025391 85.91976562 -25.78800781 84.83953125 -25.77539062 83.7265625 C-25.77345703 82.68242187 -25.77152344 81.63828125 -25.76953125 80.5625 C-25.76542236 79.61503906 -25.76131348 78.66757812 -25.75708008 77.69140625 C-26.02272436 74.74822776 -26.64665807 72.62364967 -28 70 C-30.57943954 68.78544754 -30.57943954 68.78544754 -33.5625 68.25 C-38.95644891 67.04355109 -38.95644891 67.04355109 -40 66 C-40 63.69 -40 61.38 -40 59 C-22.84 59 -5.68 59 12 59 C12 61.31 12 63.62 12 66 C11.36191406 66.26554687 10.72382812 66.53109375 10.06640625 66.8046875 C9.24011719 67.15789062 8.41382813 67.51109375 7.5625 67.875 C6.73878906 68.22304688 5.91507813 68.57109375 5.06640625 68.9296875 C2.84253285 69.8244937 2.84253285 69.8244937 2 72 C1.90190945 74.31475184 1.86922019 76.63239038 1.8671875 78.94921875 C1.86575241 79.98548149 1.86575241 79.98548149 1.86428833 81.04267883 C1.86360719 82.50786429 1.86545689 83.97305275 1.86962891 85.43823242 C1.87493759 87.66136639 1.8697029 89.88429455 1.86328125 92.10742188 C1.86394284 93.53385461 1.86522566 94.96028721 1.8671875 96.38671875 C1.86887939 98.32357544 1.86887939 98.32357544 1.87060547 100.29956055 C1.99878484 103.96524872 2.41240396 107.38602174 3 111 C-0.98193334 112.08179692 -4.9831537 113.05635992 -9 114 C-10.18722656 114.28617187 -11.37445312 114.57234375 -12.59765625 114.8671875 C-21.8275544 116.80740633 -30.82029985 117.31342082 -40.25 117.375 C-41.40951172 117.38877686 -42.56902344 117.40255371 -43.76367188 117.41674805 C-60.77860194 117.32616601 -76.39884564 112.47546153 -88.81640625 100.4453125 C-100.62103091 87.22582228 -104.7024293 70.8681569 -103.875 53.4375 C-102.79494187 37.38783613 -96.83468826 23.68094625 -85.11328125 12.578125 C-61.60381016 -7.63506445 -28.52980745 -4.85613744 0 0 Z " fill="#1B75BB" transform="translate(696,206)"/>
<path d="M0 0 C26.73 0 53.46 0 81 0 C83 22 83 22 83 29 C80.69 29.66 78.38 30.32 76 31 C75.46890625 29.87980469 74.9378125 28.75960937 74.390625 27.60546875 C73.67762081 26.1325522 72.9640493 24.65991018 72.25 23.1875 C71.90195312 22.44951172 71.55390625 21.71152344 71.1953125 20.95117188 C70.84726562 20.23896484 70.49921875 19.52675781 70.140625 18.79296875 C69.82641602 18.1383667 69.51220703 17.48376465 69.18847656 16.80932617 C67.68998066 14.52802931 66.36679722 13.37286663 64 12 C61.20236557 11.49888483 61.20236557 11.49888483 58.140625 11.48828125 C57.13547852 11.45516846 56.13033203 11.42205566 55.09472656 11.38793945 C53.8259668 11.36304443 52.55720703 11.33814941 51.25 11.3125 C47.2075 11.209375 43.165 11.10625 39 11 C39 23.87 39 36.74 39 50 C43.7953125 49.8453125 43.7953125 49.8453125 48.6875 49.6875 C50.18543091 49.65015747 50.18543091 49.65015747 51.71362305 49.61206055 C58.39056191 49.37737344 58.39056191 49.37737344 64 46 C65.23015243 43.53961915 65.23015243 43.53961915 65.8125 40.8125 C66.04582031 39.91144531 66.27914062 39.01039063 66.51953125 38.08203125 C66.67808594 37.39496094 66.83664062 36.70789063 67 36 C69.64 36 72.28 36 75 36 C75 48.87 75 61.74 75 75 C72.36 75 69.72 75 67 75 C66.79246094 74.15695312 66.58492187 73.31390625 66.37109375 72.4453125 C66.06300781 71.34960938 65.75492188 70.25390625 65.4375 69.125 C65.14746094 68.03445313 64.85742188 66.94390625 64.55859375 65.8203125 C63.24142306 62.71492469 63.24142306 62.71492469 59.96118164 61.86279297 C55.69544802 60.7901695 51.4431325 60.55518026 47.0625 60.375 C46.28326172 60.33632813 45.50402344 60.29765625 44.70117188 60.2578125 C42.80112621 60.16455873 40.90059722 60.08124038 39 60 C39.11834371 65.48110206 39.24259888 70.96202634 39.37231445 76.44287109 C39.41560433 78.30709192 39.45728361 80.17135088 39.49731445 82.03564453 C39.55516113 84.7165882 39.61881405 87.397341 39.68359375 90.078125 C39.70866249 91.32677338 39.70866249 91.32677338 39.73423767 92.60064697 C39.75418289 93.38115417 39.77412811 94.16166138 39.79467773 94.96582031 C39.81799416 95.99174286 39.81799416 95.99174286 39.84178162 97.03839111 C40.01305549 99.16186346 40.28609937 100.98880294 41 103 C45.50519154 105.16358743 49.96136959 105.31916513 54.875 105.25 C55.58317871 105.24105713 56.29135742 105.23211426 57.02099609 105.22290039 C66.44776234 105.12893002 66.44776234 105.12893002 74.125 100.1875 C78.09814811 95.05733623 80.48317867 88.93505738 83 83 C85.31 83.33 87.62 83.66 90 84 C89.60065813 95.12167108 87.34036352 104.8832733 85 116 C55.96 116 26.92 116 -3 116 C-3 113.36 -3 110.72 -3 108 C-2.08476563 107.84144531 -1.16953125 107.68289063 -0.2265625 107.51953125 C1.55621094 107.16955078 1.55621094 107.16955078 3.375 106.8125 C4.55835938 106.59207031 5.74171875 106.37164062 6.9609375 106.14453125 C10.09996848 105.33082368 10.09996848 105.33082368 11.17475891 102.94764709 C12.231877 99.17176743 12.27126701 95.58009604 12.24291992 91.69311523 C12.24481827 90.86975677 12.24671661 90.04639832 12.24867249 89.1980896 C12.25236793 86.4848265 12.24169389 83.77183293 12.23046875 81.05859375 C12.22927617 79.16960176 12.22882395 77.28060917 12.2290802 75.39161682 C12.22751748 71.43657712 12.2192435 67.4816282 12.20581055 63.52661133 C12.18880947 58.4568281 12.18499669 53.38714448 12.18575573 48.31733608 C12.18548384 44.41831003 12.17999975 40.51930575 12.17275429 36.62028694 C12.16957236 34.75077542 12.16760132 32.88126144 12.16686058 31.01174736 C12.16469265 28.40028554 12.15593887 25.78892936 12.14526367 23.17749023 C12.14571686 22.40491379 12.14617004 21.63233734 12.14663696 20.83634949 C12.12559721 17.31667448 11.86085157 14.44340629 11 11 C7.37 10.01 3.74 9.02 0 8 C0 5.36 0 2.72 0 0 Z " fill="#1B75BB" transform="translate(941,204)"/>
<path d="M0 0 C17.82 0 35.64 0 54 0 C54 2.64 54 5.28 54 8 C50.04 8.99 46.08 9.98 42 11 C41.03856924 18.27426664 40.83916443 25.4093473 40.83203125 32.7421875 C40.82870285 33.94634308 40.82537445 35.15049866 40.82194519 36.3911438 C40.81690323 38.9275881 40.81453602 41.46403897 40.81469727 44.00048828 C40.81251083 47.85590659 40.79432565 51.71103845 40.77539062 55.56640625 C40.77245603 58.0416657 40.77047168 60.51692649 40.76953125 62.9921875 C40.76234573 64.13211151 40.75516022 65.27203552 40.74775696 66.44650269 C40.77998156 77.87658418 41.51831762 89.12676888 49.625 97.8125 C55.78808321 102.41924907 63.51325235 103.60376997 71 103 C76.46698654 102.16131456 80.69517347 100.61996776 85 97 C92.06870132 86.78965364 92.15922044 74.5100753 92.1328125 62.48046875 C92.13424759 61.01073357 92.13424759 61.01073357 92.13571167 59.51130676 C92.13638836 57.44983862 92.13456992 55.38836828 92.13037109 53.3269043 C92.12503305 50.20681863 92.13032464 47.08687803 92.13671875 43.96679688 C92.41003375 27.3531611 92.41003375 27.3531611 90 11 C84.72 10.01 79.44 9.02 74 8 C74 5.36 74 2.72 74 0 C88.52 0 103.04 0 118 0 C118 2.64 118 5.28 118 8 C114.04 8.99 110.08 9.98 106 11 C105.31902852 15.08582886 104.86847129 18.4283935 104.82641602 22.47607422 C104.81292618 23.52511932 104.79943634 24.57416443 104.78553772 25.65499878 C104.77509933 26.77689606 104.76466095 27.89879333 104.75390625 29.0546875 C104.72093796 31.46875322 104.68772687 33.88281563 104.65429688 36.296875 C104.60717399 40.07256568 104.5627805 43.84824598 104.52319336 47.62402344 C104.01030928 94.3179732 104.01030928 94.3179732 92 107 C82.56337217 116.15521746 70.93044288 119.12988168 58 119 C49.18627667 118.54762569 40.74946987 117.50239178 33 113 C31.989375 112.443125 30.97875 111.88625 29.9375 111.3125 C19.86749322 103.38504785 15.81427579 94.55216949 14 82 C13.89943119 79.78139088 13.84487984 77.56041019 13.82641602 75.33959961 C13.80618126 73.38243263 13.80618126 73.38243263 13.78553772 71.38572693 C13.78047777 70.69595701 13.77541782 70.0061871 13.77020454 69.29551506 C13.75367442 67.12185923 13.73043572 64.94836801 13.70530701 62.77479553 C13.63484019 56.5985647 13.57436183 50.42227019 13.52319336 44.24584961 C13.49135088 40.4587031 13.45007357 36.67175384 13.40299797 32.88476753 C13.38702334 31.44594431 13.37468089 30.00707588 13.36609077 28.56818962 C13.35389598 26.55572202 13.32870738 24.54334593 13.30297852 22.53100586 C13.29267105 21.38772324 13.28236359 20.24444061 13.27174377 19.06651306 C12.99582338 15.95286863 12.4582741 13.75846523 11 11 C8.38861714 9.74984645 8.38861714 9.74984645 5.375 9.1875 C3.87066406 8.83751953 3.87066406 8.83751953 2.3359375 8.48046875 C1.56507812 8.32191406 0.79421875 8.16335937 0 8 C0 5.36 0 2.72 0 0 Z " fill="#1B75BB" transform="translate(1165,204)"/>
<path d="M0 0 C4.70319825 11.9110851 9.17736302 23.88886214 13.51037598 35.93914795 C18.97390005 51.11227152 24.52381165 66.25241351 30.27514648 81.31900024 C30.91980327 83.00924659 31.56193674 84.70045771 32.20141602 86.39266968 C33.09014899 88.7413593 33.98880555 91.08599663 34.890625 93.4296875 C35.27562164 94.45330635 35.27562164 94.45330635 35.668396 95.49760437 C38.58621815 103.15842887 38.58621815 103.15842887 44.578125 108.2421875 C45.45984375 108.45101562 46.3415625 108.65984375 47.25 108.875 C48.14203125 109.09929687 49.0340625 109.32359375 49.953125 109.5546875 C50.62859375 109.70164062 51.3040625 109.84859375 52 110 C52 112.64 52 115.28 52 118 C34.51 118 17.02 118 -1 118 C-1 115.36 -1 112.72 -1 110 C2.3 109.01 5.6 108.02 9 107 C7.72630908 99.99469994 5.50172954 93.51151157 3.03271484 86.85375977 C1 81.30365725 1 81.30365725 1 78 C-8.24 78 -17.48 78 -27 78 C-27.99 81.3 -28.98 84.6 -30 88 C-31.11541801 91.54420144 -32.23424969 95.0870019 -33.36914062 98.625 C-34.57851992 102.24129618 -34.57851992 102.24129618 -35 106 C-30.71 107.32 -26.42 108.64 -22 110 C-22 112.64 -22 115.28 -22 118 C-35.86 118 -49.72 118 -64 118 C-64 115.36 -64 112.72 -64 110 C-63.25234375 109.84144531 -62.5046875 109.68289063 -61.734375 109.51953125 C-60.25710938 109.16955078 -60.25710938 109.16955078 -58.75 108.8125 C-57.77546875 108.59207031 -56.8009375 108.37164062 -55.796875 108.14453125 C-50.71422579 106.06462033 -48.99621496 102.22307329 -46.90625 97.3984375 C-46.09468248 95.39443978 -45.29353872 93.38620487 -44.5 91.375 C-44.04641113 90.24416992 -43.59282227 89.11333984 -43.12548828 87.94824219 C-41.40064951 83.63858957 -39.70020712 79.31941712 -38 75 C-37.44427307 73.58962463 -37.44427307 73.58962463 -36.87731934 72.15075684 C-32.60548338 61.30780261 -28.34353967 50.46096904 -24.10125732 39.60641479 C-23.28348012 37.51683409 -22.46323742 35.42821647 -21.64044189 33.34060669 C-19.55041598 28.02725895 -17.51334165 22.70154669 -15.55566406 17.33789062 C-14.96037399 15.73696564 -14.96037399 15.73696564 -14.35305786 14.10369873 C-13.59779644 12.06879109 -12.85829454 10.02794406 -12.13693237 7.98077393 C-11.79799957 7.07671814 -11.45906677 6.17266235 -11.10986328 5.24121094 C-10.82184845 4.44358337 -10.53383362 3.64595581 -10.23709106 2.82415771 C-9 1 -9 1 -6.61813354 0.23492432 C-4 0 -4 0 0 0 Z M-13 41 C-16.99554817 49.45212113 -19.94146881 58.17196679 -23 67 C-16.73 67 -10.46 67 -4 67 C-4.71334494 63.43327531 -5.47916252 60.32539109 -6.62890625 56.91796875 C-6.94150391 55.98662109 -7.25410156 55.05527344 -7.57617188 54.09570312 C-7.90166016 53.13599609 -8.22714844 52.17628906 -8.5625 51.1875 C-9.0565332 49.71893555 -9.0565332 49.71893555 -9.56054688 48.22070312 C-10.37098715 45.81287331 -11.18422054 43.40602504 -12 41 C-12.33 41 -12.66 41 -13 41 Z " fill="#1B75BB" transform="translate(1464,202)"/>
<path d="M0 0 C1.63930653 1.63930653 1.34079999 3.62190102 1.53515625 5.8828125 C1.62216797 6.88570312 1.70917969 7.88859375 1.79882812 8.921875 C1.88583984 9.97890625 1.97285156 11.0359375 2.0625 12.125 C2.19881836 13.67574219 2.19881836 13.67574219 2.33789062 15.2578125 C2.78464507 20.52481222 3.11230132 25.71435127 3 31 C0.36 31.66 -2.28 32.32 -5 33 C-5.30292969 32.14277344 -5.60585937 31.28554687 -5.91796875 30.40234375 C-9.75811109 19.92170912 -12.20533791 13.80310617 -22.5 8.9453125 C-30.70360144 5.84332571 -40.24509998 5.9458742 -48.515625 8.77734375 C-56.46842422 12.69122135 -61.86226569 18.90001652 -65.0390625 27.08984375 C-65.51472656 28.53037109 -65.51472656 28.53037109 -66 30 C-66.47566406 31.39412109 -66.47566406 31.39412109 -66.9609375 32.81640625 C-71.94350768 50.34682517 -70.56642058 72.77322255 -62 89 C-56.72362832 97.27798107 -50.00437275 103.77548497 -40.4140625 106.52734375 C-31.96570004 108.18147297 -24.51066516 107.28443442 -17 103 C-9.47072001 97.85654124 -5.92698853 88.92537686 -2 81 C3.75 81.875 3.75 81.875 6 83 C4.87614325 89.85552615 3.06620586 96.37906038 1 103 C0.73880371 103.84925049 0.47760742 104.69850098 0.20849609 105.57348633 C-0.17314697 106.7746106 -0.17314697 106.7746106 -0.5625 108 C-0.90474609 109.0828125 -0.90474609 109.0828125 -1.25390625 110.1875 C-2 112 -2 112 -4 114 C-6.57452894 114.62061886 -9.08054674 115.13024278 -11.6875 115.5625 C-12.4513501 115.69035889 -13.2152002 115.81821777 -14.00219727 115.94995117 C-35.84095882 119.45365305 -58.75444085 118.85980454 -77.57421875 105.8671875 C-89.93706894 96.35117721 -97.02180549 83.48981627 -99.2890625 68.02880859 C-101.44663758 50.05916615 -97.89443874 33.60549257 -87 19 C-66.15828501 -6.61621145 -29.62942717 -6.15552147 0 0 Z " fill="#1B75BB" transform="translate(1390,205)"/>
<path d="M0 0 C5.55887796 -0.37901441 5.55887796 -0.37901441 7.73120117 1.48745728 C10.90791561 3.60528114 13.86114646 3.4197996 17.55078125 3.38818359 C18.30571869 3.39344055 19.06065613 3.39869751 19.83847046 3.40411377 C22.33002508 3.41730061 24.82093905 3.40858064 27.3125 3.3984375 C29.04598106 3.40045862 30.7794613 3.40337038 32.51293945 3.40713501 C36.14445091 3.41155657 39.77574087 3.40513278 43.40722656 3.39111328 C48.06130097 3.37402142 52.71485637 3.38386351 57.36891174 3.40183067 C60.94799711 3.41267309 64.5269595 3.40922008 68.10604858 3.4014473 C69.82205263 3.39944655 71.53806785 3.40190016 73.25405884 3.40888596 C75.65274618 3.41650807 78.05059392 3.40488626 80.44921875 3.38818359 C81.15791107 3.39425629 81.86660339 3.40032898 82.59677124 3.40658569 C86.89622097 3.35114384 88.65705905 2.50985274 92 0 C94.31 0 96.62 0 99 0 C99.33 11.22 99.66 22.44 100 34 C97.36 34.33 94.72 34.66 92 35 C91.54560547 33.69675781 91.54560547 33.69675781 91.08203125 32.3671875 C87.9131665 23.31226915 87.9131665 23.31226915 82 16 C77.81716097 14.83181973 73.5046398 14.68950529 69.1875 14.4375 C68.14819336 14.37272461 68.14819336 14.37272461 67.08789062 14.30664062 C65.39211314 14.20138547 63.69607948 14.10027137 62 14 C62.08433033 25.79595408 62.17918527 37.59177186 62.28752708 49.38753128 C62.33750122 54.86461091 62.38383126 60.34167114 62.421875 65.81884766 C62.45871354 71.1033079 62.50506978 76.38760633 62.55806351 81.67192841 C62.57661503 83.68934037 62.59172018 85.70678702 62.60334396 87.72425079 C62.6201933 90.54713051 62.64922538 93.36963902 62.68115234 96.19238281 C62.68331253 97.02891891 62.68547272 97.86545502 62.68769836 98.7273407 C62.67894792 104.20923187 62.67894792 104.20923187 65 109 C67.85781443 110.13848908 67.85781443 110.13848908 71.125 110.75 C72.76855469 111.11351562 72.76855469 111.11351562 74.4453125 111.484375 C75.28835938 111.65453125 76.13140625 111.8246875 77 112 C77 114.64 77 117.28 77 120 C58.52 120 40.04 120 21 120 C21 117.36 21 114.72 21 112 C21.77085938 111.80664062 22.54171875 111.61328125 23.3359375 111.4140625 C24.33882812 111.15367187 25.34171875 110.89328125 26.375 110.625 C27.37273437 110.36976563 28.37046875 110.11453125 29.3984375 109.8515625 C32.12541015 109.17595681 32.12541015 109.17595681 34 107 C34.95334753 101.42387103 35.16289802 95.93571799 35.20532227 90.2890625 C35.21522186 89.45884079 35.22512146 88.62861908 35.23532104 87.77323914 C35.26664869 85.0571874 35.29157853 82.34111825 35.31640625 79.625 C35.33700066 77.73070854 35.35799775 75.83642141 35.37937927 73.94213867 C35.43434321 68.97743258 35.4838648 64.0126868 35.53222656 59.0479126 C35.5826301 53.97331242 35.63821737 48.89876926 35.69335938 43.82421875 C35.80062646 33.88286131 35.90214013 23.94145418 36 14 C33.43663746 14.11446272 30.87486555 14.24119501 28.3125 14.375 C27.2306543 14.42140625 27.2306543 14.42140625 26.12695312 14.46875 C20.8313214 14.7589216 16.71479816 15.23826393 12.859375 19.19921875 C10.79331576 22.311329 9.52553034 25.30479156 8.25 28.8125 C7.82203125 29.97394531 7.3940625 31.13539063 6.953125 32.33203125 C6.63859375 33.21246094 6.3240625 34.09289062 6 35 C3.36 35 0.72 35 -2 35 C-2.14268634 27.04424591 -1.71791325 19.23379958 -1 11.3125 C-0.90460938 10.21744141 -0.80921875 9.12238281 -0.7109375 7.99414062 C-0.47817635 5.32902543 -0.2411367 2.66436814 0 0 Z " fill="#1B75BB" transform="translate(1505,200)"/>
<path d="M0 0 C4.62 0 9.24 0 14 0 C14 102.63 14 205.26 14 311 C9.38 311 4.76 311 0 311 C0 208.37 0 105.74 0 0 Z " fill="#1B75BB" transform="translate(534,154)"/>
<path d="M0 0 C17.49 0 34.98 0 53 0 C53 2.64 53 5.28 53 8 C49.04 8.99 45.08 9.98 41 11 C40.97686678 22.96076485 40.95907989 34.92152442 40.94818783 46.88230705 C40.94296115 52.43570621 40.93586739 57.9890901 40.92456055 63.54248047 C40.91372405 68.89815547 40.90772154 74.25381577 40.90512276 79.60950089 C40.90326989 81.65650794 40.89965191 83.70351416 40.89426994 85.75051498 C40.88704943 88.6095735 40.88600949 91.4685706 40.88647461 94.32763672 C40.8810817 95.60725281 40.8810817 95.60725281 40.87557983 96.91271973 C40.76936305 101.08955104 40.76936305 101.08955104 42 105 C44.57437581 105.91280138 44.57437581 105.91280138 47.5625 106.625 C48.57441406 106.88539063 49.58632812 107.14578125 50.62890625 107.4140625 C51.41136719 107.60742188 52.19382812 107.80078125 53 108 C53 110.64 53 113.28 53 116 C35.51 116 18.02 116 0 116 C0 113.36 0 110.72 0 108 C3.96 107.01 7.92 106.02 12 105 C12.09262544 93.20422394 12.16372724 81.4085342 12.20724869 69.61246872 C12.22813543 64.13523272 12.25647319 58.65824528 12.30175781 53.18115234 C12.34517637 47.8967672 12.36912892 42.61262133 12.37950897 37.32807159 C12.38690749 35.31059247 12.40135487 33.29312664 12.42292023 31.27574921 C12.45190101 28.45274924 12.45595822 25.63074165 12.45410156 22.80761719 C12.46848267 21.97108109 12.48286377 21.13454498 12.49768066 20.2726593 C12.47154342 16.60691124 12.35526722 14.46855078 10.10540771 11.50128174 C7.92598718 9.94722443 6.35994948 9.2719899 3.75 8.75 C2.5125 8.5025 1.275 8.255 0 8 C0 5.36 0 2.72 0 0 Z " fill="#1B75BB" transform="translate(1613,204)"/>
<path d="M0 0 C17.82 0 35.64 0 54 0 C54 2.64 54 5.28 54 8 C53.22914063 8.17015625 52.45828125 8.3403125 51.6640625 8.515625 C50.15972656 8.87914062 50.15972656 8.87914062 48.625 9.25 C47.62726562 9.48203125 46.62953125 9.7140625 45.6015625 9.953125 C42.98166813 10.74417188 42.98166813 10.74417188 41.8555603 12.54187012 C40.61029877 16.11965952 40.70519269 19.63305322 40.70947266 23.37695312 C40.70275543 24.2196727 40.69603821 25.06239227 40.68911743 25.9306488 C40.67013072 28.7142426 40.66621325 31.49759549 40.6640625 34.28125 C40.65763628 36.21651306 40.65090805 38.15177513 40.64389038 40.08703613 C40.63191683 44.14219415 40.62820976 48.19726696 40.62939453 52.25244141 C40.62959801 57.45136862 40.60226655 62.64975096 40.56785011 67.84854889 C40.54562871 71.84452837 40.54155548 75.84037557 40.54261398 79.83641052 C40.54025197 81.75339134 40.5313948 83.67037548 40.51594925 85.58729553 C40.49638037 88.26626982 40.50209053 90.94405393 40.51416016 93.62304688 C40.49730164 94.81232033 40.49730164 94.81232033 40.48010254 96.02561951 C40.52095137 99.58876044 40.69247614 101.59629488 42.88290405 104.47180176 C45.22360322 106.16140509 46.92031713 106.7506442 49.75 107.25 C50.54921875 107.39953125 51.3484375 107.5490625 52.171875 107.703125 C52.77515625 107.80109375 53.3784375 107.8990625 54 108 C54 110.64 54 113.28 54 116 C36.18 116 18.36 116 0 116 C0 113.36 0 110.72 0 108 C3.63 107.01 7.26 106.02 11 105 C13.45588416 96.40501516 13.29134409 87.9204298 13.265625 79.06640625 C13.26697499 77.42170657 13.2689183 75.77700728 13.27142334 74.13230896 C13.27435972 70.69713515 13.2701256 67.26206588 13.26074219 63.8269043 C13.24935759 59.44830516 13.2559103 55.06995155 13.26788712 50.69136143 C13.27515373 47.29821461 13.27279571 43.90512489 13.26763153 40.51197624 C13.26630781 38.89861967 13.26789737 37.28525772 13.27259064 35.67190742 C13.29178502 27.21991074 13.06435475 19.25690651 11 11 C7.37 10.01 3.74 9.02 0 8 C0 5.36 0 2.72 0 0 Z " fill="#1B75BB" transform="translate(829,205)"/>
<path d="M0 0 C0.83789062 -0.01224609 1.67578125 -0.02449219 2.5390625 -0.03710938 C10.75981934 -0.05619782 17.84700681 0.83187851 24.58984375 5.7734375 C27.77565473 8.96807345 28.33248914 12.15204387 28.4375 16.5625 C28.38067113 20.42686284 28.10521225 22.79820075 25.625 25.8125 C23 28.1875 23 28.1875 21 29.1875 C21.56589844 29.66960937 22.13179687 30.15171875 22.71484375 30.6484375 C23.44832031 31.28007812 24.18179687 31.91171875 24.9375 32.5625 C25.66839844 33.18898438 26.39929687 33.81546875 27.15234375 34.4609375 C29.55109832 36.70247983 29.95188721 37.69606217 30.2734375 40.98046875 C30.61217686 52.30218031 30.61217686 52.30218031 26.6015625 56.828125 C16.25190064 65.61271605 0.83218434 65.00777822 -12 64.1875 C-14.31 63.8575 -16.62 63.5275 -19 63.1875 C-19 42.7275 -19 22.2675 -19 1.1875 C-12.49862322 0.4651248 -6.47749426 0.00498269 0 0 Z M-2 13.1875 C-2 16.8175 -2 20.4475 -2 24.1875 C4.40079188 24.69530964 4.40079188 24.69530964 10 22.1875 C11.16977494 19.83877469 11.16977494 19.83877469 11 17.1875 C9.73637301 14.67042843 9.73637301 14.67042843 7 13.1875 C3.91758803 12.85383685 1.11702098 13.00414582 -2 13.1875 Z M-2 37.1875 C-2 41.8075 -2 46.4275 -2 51.1875 C5.21644129 51.39262448 5.21644129 51.39262448 11 48.1875 C12.24285895 44.73875329 12.24285895 44.73875329 12 41.1875 C10.23468433 38.5395265 9.06900421 38.2105014 6 37.1875 C4.60560336 37.12084624 3.20830125 37.10211801 1.8125 37.125 C0.554375 37.145625 -0.70375 37.16625 -2 37.1875 Z " fill="#8BC53F" transform="translate(1178,384.8125)"/>
<path d="M0 0 C5.61 0 11.22 0 17 0 C17 7.26 17 14.52 17 22 C23.27 22 29.54 22 36 22 C36 14.74 36 7.48 36 0 C41.94 0 47.88 0 54 0 C54 20.46 54 40.92 54 62 C48.06 62 42.12 62 36 62 C36 54.08 36 46.16 36 38 C29.73 38 23.46 38 17 38 C17 45.92 17 53.84 17 62 C11.39 62 5.78 62 0 62 C0 41.54 0 21.08 0 0 Z " fill="#8BC53F" transform="translate(1477,386)"/>
<path d="M0 0 C0.66 -0.66 1.32 -1.32 2 -2 C4.58064129 -2.14497985 7.04943884 -2.18677545 9.625 -2.125 C10.33140625 -2.11597656 11.0378125 -2.10695313 11.765625 -2.09765625 C13.51056098 -2.07407603 15.25532295 -2.03820461 17 -2 C16.98363261 4.79576232 16.92853707 11.59044693 16.84741211 18.38574219 C16.82431722 20.69393932 16.80985653 23.00224056 16.80444336 25.31054688 C16.7950918 28.64258063 16.75396331 31.97299593 16.70703125 35.3046875 C16.71293022 36.834991 16.71293022 36.834991 16.71894836 38.39620972 C16.57583011 45.53832802 14.99445439 51.02017293 11 57 C4.98172032 62.23328668 -2.08531377 63.37259401 -9.875 63.3125 C-10.57173828 63.31121094 -11.26847656 63.30992187 -11.98632812 63.30859375 C-17.56064312 63.20488556 -21.90794676 62.18230853 -27 60 C-26.48594831 55.03083364 -25.76615118 50.70973649 -24 46 C-23.28714844 46.22816406 -22.57429688 46.45632813 -21.83984375 46.69140625 C-14.00688696 49.05998903 -14.00688696 49.05998903 -6 48 C-3.51768273 46.26989612 -3.51768273 46.26989612 -2 44 C-2 43.01 -2 42.02 -2 41 C-2.969375 41.515625 -3.93875 42.03125 -4.9375 42.5625 C-10.09047881 44.74861222 -14.75383261 44.14265092 -19.953125 42.3125 C-24.9712852 39.86887416 -27.65012733 35.97163143 -30 31 C-32.51345005 23.2195113 -31.67876339 14.55102765 -28.33203125 7.1953125 C-25.52686207 2.57213045 -21.90466845 -0.10845307 -17.0625 -2.375 C-10.46520144 -3.72138746 -5.92985043 -3.55791026 0 0 Z M-11.3125 12.875 C-13.63354384 17.17322934 -13.86607733 21.20146343 -13 26 C-11.50819499 28.39103192 -10.64064538 29.71067628 -8.0625 30.875 C-5.4543271 31.03307108 -4.16842635 30.42069313 -2 29 C-0.65446547 26.30893093 -0.79405886 24.12834578 -0.75 21.125 C-0.72421875 20.07570313 -0.6984375 19.02640625 -0.671875 17.9453125 C-1.03778467 14.66083761 -1.69472104 13.3272864 -4 11 C-7.45304953 10.20314242 -8.55759855 10.64129612 -11.3125 12.875 Z " fill="#8BC53F" transform="translate(1299,404)"/>
<path d="M0 0 C13.53 0 27.06 0 41 0 C41 4.62 41 9.24 41 14 C33.41 14 25.82 14 18 14 C18 17.3 18 20.6 18 24 C25.26 24 32.52 24 40 24 C40 28.95 40 33.9 40 39 C32.74 39 25.48 39 18 39 C18 46.59 18 54.18 18 62 C12.06 62 6.12 62 0 62 C0 41.54 0 21.08 0 0 Z " fill="#8BC53F" transform="translate(848,386)"/>
<path d="M0 0 C5.94 0 11.88 0 18 0 C18.04898438 2.05863281 18.09796875 4.11726563 18.1484375 6.23828125 C18.20406694 8.23398733 18.25976377 10.22969217 18.31738281 12.2253418 C18.3556435 13.61131907 18.39050156 14.99739465 18.421875 16.38354492 C18.46758699 18.3770164 18.52658925 20.37016914 18.5859375 22.36328125 C18.63306885 24.16212769 18.63306885 24.16212769 18.68115234 25.99731445 C18.78429494 29.17882706 18.78429494 29.17882706 21 32 C24.29075996 31.62095792 24.29075996 31.62095792 27 30 C27.15873955 27.78312006 27.25133837 25.56144702 27.31640625 23.33984375 C27.33718735 22.67537735 27.35796844 22.01091095 27.37937927 21.3263092 C27.44493658 19.19681457 27.50378785 17.06719332 27.5625 14.9375 C27.60567939 13.49673153 27.64929349 12.05597601 27.69335938 10.61523438 C27.80144527 7.07695097 27.90047093 3.53857603 28 0 C33.94 0 39.88 0 46 0 C46 15.18 46 30.36 46 46 C41.05 46 36.1 46 31 46 C30.34 45.01 29.68 44.02 29 43 C28.401875 43.474375 27.80375 43.94875 27.1875 44.4375 C22.34198633 47.89858119 16.72425571 47.59781211 11 47 C5.6568609 44.32843045 2.84441957 41.47778589 0.9296875 35.859375 C-0.70865221 29.06888804 -0.20846069 21.93983521 -0.125 15 C-0.11495155 13.54297489 -0.10582899 12.08594309 -0.09765625 10.62890625 C-0.07750112 7.08563461 -0.03832903 3.54330619 0 0 Z " fill="#8BC53F" transform="translate(991,402)"/>
<path d="M0 0 C5.94 0 11.88 0 18 0 C18.04898438 2.05863281 18.09796875 4.11726563 18.1484375 6.23828125 C18.20406694 8.23398733 18.25976377 10.22969217 18.31738281 12.2253418 C18.3556435 13.61131907 18.39050156 14.99739465 18.421875 16.38354492 C18.46758699 18.3770164 18.52658925 20.37016914 18.5859375 22.36328125 C18.63306885 24.16212769 18.63306885 24.16212769 18.68115234 25.99731445 C18.78429494 29.17882706 18.78429494 29.17882706 21 32 C24.29075996 31.62095792 24.29075996 31.62095792 27 30 C27.15873955 27.78312006 27.25133837 25.56144702 27.31640625 23.33984375 C27.33718735 22.67537735 27.35796844 22.01091095 27.37937927 21.3263092 C27.44493658 19.19681457 27.50378785 17.06719332 27.5625 14.9375 C27.60567939 13.49673153 27.64929349 12.05597601 27.69335938 10.61523438 C27.80144527 7.07695097 27.90047093 3.53857603 28 0 C33.94 0 39.88 0 46 0 C46 15.18 46 30.36 46 46 C41.05 46 36.1 46 31 46 C31 44.68 31 43.36 31 42 C29.6078125 42.9590625 29.6078125 42.9590625 28.1875 43.9375 C22.63413786 47.53085197 17.46414956 47.67508286 11 47 C7.05383277 45.02691638 4.10917469 42.90197319 2 39 C-0.37467882 30.85329163 -0.23028485 22.84340261 -0.125 14.4375 C-0.11494735 13.03320953 -0.10582555 11.62891207 -0.09765625 10.22460938 C-0.07423166 6.8163313 -0.03836558 3.40814264 0 0 Z " fill="#8BC53F" transform="translate(897,402)"/>
<path d="M0 0 C5.61 0 11.22 0 17 0 C17.06058594 1.98644531 17.12117187 3.97289062 17.18359375 6.01953125 C17.24617782 7.94572992 17.30879365 9.8719277 17.37231445 11.7980957 C17.43687006 13.79303319 17.4967783 15.78811929 17.55664062 17.78320312 C17.59853516 19.03681641 17.64042969 20.29042969 17.68359375 21.58203125 C17.72025146 22.73936768 17.75690918 23.8967041 17.79467773 25.08911133 C17.88328509 28.0643446 17.88328509 28.0643446 19 31 C21.39719432 31.67958603 21.39719432 31.67958603 24 32 C26.82879286 29.17120714 26.3142666 27.20075802 26.4140625 23.2421875 C26.43342865 22.57913605 26.4527948 21.91608459 26.4727478 21.23294067 C26.53255954 19.11375823 26.57893388 16.9945215 26.625 14.875 C26.66317845 13.43877831 26.70223011 12.00257955 26.7421875 10.56640625 C26.83990819 7.04438971 26.91945876 3.52261928 27 0 C32.94 0 38.88 0 45 0 C45 15.18 45 30.36 45 46 C40.05 46 35.1 46 30 46 C29.67 44.68 29.34 43.36 29 42 C28.236875 42.639375 27.47375 43.27875 26.6875 43.9375 C21.79471224 47.69243014 16.93495227 47.48221487 11 47 C6.25096226 45.56632823 3.61850956 43.11915232 1.04077148 38.87109375 C-1.39635187 32.14799485 -0.49384397 24.55120111 -0.3125 17.5 C-0.28738817 15.80211613 -0.26458008 14.10419654 -0.24414062 12.40625 C-0.19363982 8.26922435 -0.09576868 4.13720718 0 0 Z " fill="#8BC53F" transform="translate(732,402)"/>
<path d="M0 0 C3.78216428 4.90280554 3.96940746 10.23183033 3.8828125 16.2109375 C3.8799826 16.95711334 3.87715271 17.70328918 3.87423706 18.47207642 C3.86311687 20.83571988 3.83802821 23.19897268 3.8125 25.5625 C3.80245962 27.17317158 3.79333562 28.78384915 3.78515625 30.39453125 C3.7649129 34.32578937 3.72575037 38.25621171 3.6875 42.1875 C-1.9225 42.1875 -7.5325 42.1875 -13.3125 42.1875 C-13.36148437 40.28484375 -13.41046875 38.3821875 -13.4609375 36.421875 C-13.53596927 33.92706858 -13.61151692 31.43227763 -13.6875 28.9375 C-13.7184375 27.68324219 -13.749375 26.42898438 -13.78125 25.13671875 C-13.81992188 23.93144531 -13.85859375 22.72617187 -13.8984375 21.484375 C-13.9298584 20.37416992 -13.9612793 19.26396484 -13.99365234 18.12011719 C-14.30490901 15.25731848 -14.67483482 13.540396 -16.3125 11.1875 C-17.3025 10.8575 -18.2925 10.5275 -19.3125 10.1875 C-22.09052951 12.44283407 -23.21276911 13.63496591 -23.85839844 17.21191406 C-23.88981934 18.94006348 -23.88981934 18.94006348 -23.921875 20.703125 C-23.95410156 21.95351563 -23.98632812 23.20390625 -24.01953125 24.4921875 C-24.04080078 26.44511719 -24.04080078 26.44511719 -24.0625 28.4375 C-24.10697266 30.41363281 -24.10697266 30.41363281 -24.15234375 32.4296875 C-24.22304536 35.68196134 -24.2700357 38.93473492 -24.3125 42.1875 C-29.9225 42.1875 -35.5325 42.1875 -41.3125 42.1875 C-41.6425 27.0075 -41.9725 11.8275 -42.3125 -3.8125 C-37.0325 -3.8125 -31.7525 -3.8125 -26.3125 -3.8125 C-25.9825 -2.4925 -25.6525 -1.1725 -25.3125 0.1875 C-24.57 -0.451875 -23.8275 -1.09125 -23.0625 -1.75 C-15.8004146 -7.19656405 -6.90762458 -5.41408413 0 0 Z " fill="#8BC53F" transform="translate(1397.3125,405.8125)"/>
<path d="M0 0 C5.45458355 5.70828511 7.77910068 11.9217556 7.6875 19.8125 C7.15111051 27.15076478 4.96345694 32.60865181 -0.3125 37.8125 C-7.61102668 43.25092701 -15.47379312 43.70653012 -24.3125 42.8125 C-31.91213839 40.43633274 -36.78767721 36.48342216 -40.5625 29.5 C-42.82664278 21.38682171 -43.12902747 13.17775397 -39.12109375 5.54296875 C-35.16219114 -0.27133236 -30.48844625 -2.90259346 -23.875 -4.9375 C-14.89095699 -5.813992 -7.68302508 -5.07369581 0 0 Z M-20.9296875 8.99609375 C-23.83288903 12.80962118 -24.61632985 18.25098067 -24.05859375 22.953125 C-23.27831111 25.87764892 -22.46535003 27.65964997 -20.3125 29.8125 C-17.35480823 30.31260524 -17.35480823 30.31260524 -14.3125 29.8125 C-11.20301732 27.23913502 -10.62329099 23.98641538 -10.23046875 20.05078125 C-10.37700307 16.05248766 -11.80848225 12.48332298 -13.3125 8.8125 C-17.30720061 7.60440343 -17.30720061 7.60440343 -20.9296875 8.99609375 Z " fill="#8BC53F" transform="translate(715.3125,406.1875)"/>
<path d="M0 0 C6.6 0 13.2 0 20 0 C21.11375 2.660625 21.11375 2.660625 22.25 5.375 C22.66765625 6.37273437 23.0853125 7.37046875 23.515625 8.3984375 C25.37841688 12.91815885 27.18443987 17.46109969 29 22 C31.64 14.74 34.28 7.48 37 0 C43.6 0 50.2 0 57 0 C55.906875 2.248125 54.81375 4.49625 53.6875 6.8125 C53.12313232 7.98329102 53.12313232 7.98329102 52.54736328 9.17773438 C50.61108965 13.09575542 48.55527142 16.75616761 46.0546875 20.34375 C36.88060597 33.83224207 36.48480919 45.93323541 37 62 C31.06 62 25.12 62 19 62 C19.18755859 59.75896484 19.18755859 59.75896484 19.37890625 57.47265625 C20.24179952 37.09170549 12.66436192 23.10171996 2.65820312 5.95727539 C1 3 1 3 0 0 Z " fill="#8BC53F" transform="translate(623,386)"/>
<path d="M0 0 C4.67742445 2.78028726 6.52951608 6.61632477 8.546875 11.515625 C9.234375 15.328125 9.234375 15.328125 9.234375 27.328125 C-4.130625 27.823125 -4.130625 27.823125 -17.765625 28.328125 C-15.111865 30.981885 -13.12030973 31.25097378 -9.43359375 31.4609375 C-4.43589988 31.44519673 0.30877026 31.18475191 5.234375 30.328125 C5.894375 34.288125 6.554375 38.248125 7.234375 42.328125 C-2.22479767 46.38205615 -13.56440891 47.21446332 -23.390625 43.765625 C-29.04442601 41.07197906 -32.3271015 37.13978457 -35.140625 31.640625 C-36.8501078 22.58036617 -36.49259094 14.31833098 -31.58203125 6.42578125 C-23.88108128 -3.8930554 -11.11685636 -4.9024646 0 0 Z M-17.140625 11.140625 C-18.96439967 13.14153484 -18.96439967 13.14153484 -18.765625 15.328125 C-14.805625 15.328125 -10.845625 15.328125 -6.765625 15.328125 C-7.425625 13.678125 -8.085625 12.028125 -8.765625 10.328125 C-12.49734408 8.94901143 -13.92511168 8.68668063 -17.140625 11.140625 Z " fill="#8BC53F" transform="translate(1665.765625,403.671875)"/>
<path d="M0 0 C5.37091496 5.66929912 6.4922015 11.22478612 6.5 18.9375 C6.4175 21.061875 6.335 23.18625 6.25 25.375 C-7.115 25.87 -7.115 25.87 -20.75 26.375 C-15.24960232 29.31255046 -15.24960232 29.31255046 -9.8125 29.625 C-8.96042969 29.59921875 -8.10835937 29.5734375 -7.23046875 29.546875 C-4.02457675 29.32473445 -0.91585205 28.92558297 2.25 28.375 C2.91 32.335 3.57 36.295 4.25 40.375 C-5.52531519 44.49092219 -16.96907038 45.32890394 -26.95703125 41.28125 C-32.58546491 38.43637722 -35.04291689 34.88584777 -37.75 29.375 C-40.14578616 21.58869497 -38.83048733 13.7483753 -35.75 6.375 C-32.64068721 1.04474951 -27.67926695 -2.43598335 -21.80078125 -4.21484375 C-13.67672343 -5.83965531 -7.01940851 -4.1478323 0 0 Z M-20.125 9.1875 C-21.94877467 11.18840984 -21.94877467 11.18840984 -21.75 13.375 C-17.79 13.375 -13.83 13.375 -9.75 13.375 C-10.41 11.725 -11.07 10.075 -11.75 8.375 C-15.48171908 6.99588643 -16.90948668 6.73355563 -20.125 9.1875 Z " fill="#8BC53F" transform="translate(1578.75,405.625)"/>
<path d="M0 0 C4.28311903 3.76078744 6.55348655 7.46172858 8 13 C8.25078639 17.68468983 8.0886078 22.3037865 8 27 C-5.365 27.495 -5.365 27.495 -19 28 C-13.49960232 30.93755046 -13.49960232 30.93755046 -8.0625 31.25 C-7.21042969 31.22421875 -6.35835937 31.1984375 -5.48046875 31.171875 C-2.27457675 30.94973445 0.83414795 30.55058297 4 30 C4.66 33.96 5.32 37.92 6 42 C-3.76847042 46.11304018 -15.22887797 46.96474387 -25.20703125 42.90234375 C-31.04109024 39.9662487 -33.93207161 36.08154309 -36 30 C-37.83083887 21.66781492 -36.89146951 14.50856601 -32.9296875 6.9609375 C-29.61229367 1.79810604 -25.503656 -0.89358231 -19.625 -2.75 C-12.66198314 -3.41314446 -6.2008162 -3.70743537 0 0 Z M-18.3125 11.4375 C-20.09166509 13.62782274 -20.09166509 13.62782274 -20 15 C-16.04 15 -12.08 15 -8 15 C-9.45288986 10.4158037 -9.45288986 10.4158037 -11 9 C-14.75771033 8.39064157 -15.62950375 8.60947692 -18.3125 11.4375 Z " fill="#8BC53F" transform="translate(1121,404)"/>
<path d="M0 0 C3.83020077 3.43953728 6.48755172 7.04953271 8 12 C8.13756975 14.65509615 8.19029073 17.1676475 8.125 19.8125 C8.08375 22.184375 8.0425 24.55625 8 27 C-0.91 27 -9.82 27 -19 27 C-16.05496875 29.94503125 -14.84135774 30.89054867 -10.765625 31.1328125 C-5.73499509 31.11718943 -0.95797688 30.86225685 4 30 C6.42857143 38.42857143 6.42857143 38.42857143 5 43 C-4.28856864 46.033002 -15.83811296 46.82955462 -25.06640625 43.18359375 C-29.86207274 40.24806456 -34.0310641 35.27822723 -36 30 C-36.68311878 22.66044468 -37.44892736 14.13702735 -33.39453125 7.67578125 C-25.03671091 -2.36764991 -11.99185793 -7.19511476 0 0 Z M-18.3125 11.4375 C-20.09166509 13.62782274 -20.09166509 13.62782274 -20 15 C-16.04 15 -12.08 15 -8 15 C-8.62841973 11.0285831 -8.62841973 11.0285831 -11 9 C-14.76619544 8.30622716 -15.62659352 8.60640938 -18.3125 11.4375 Z " fill="#8BC53F" transform="translate(1253,404)"/>
<path d="M0 0 C-0.66 3.96 -1.32 7.92 -2 12 C-5.05989583 11.4140625 -8.11979167 10.828125 -11.1796875 10.2421875 C-12.11039063 10.16226562 -13.04109375 10.08234375 -14 10 C-14.66 10.66 -15.32 11.32 -16 12 C-15.03578125 12.43570312 -14.0715625 12.87140625 -13.078125 13.3203125 C-11.80166991 13.92099725 -10.5256509 14.5226093 -9.25 15.125 C-8.61578125 15.40859375 -7.9815625 15.6921875 -7.328125 15.984375 C-2.77346176 18.1668178 -0.38760036 20.38476257 2 25 C2.87191346 29.18106535 2.46731107 32.89321063 0.8125 36.8125 C-2.90109152 41.2944208 -6.42154004 43.44819819 -12 45 C-20.25906819 45.74554308 -27.33946931 45.16987477 -35 42 C-34.01 37.71 -33.02 33.42 -32 29 C-30.30875 29.495 -28.6175 29.99 -26.875 30.5 C-22.79881174 31.62029432 -19.25827574 32.3452656 -15 32 C-15 31.01 -15 30.02 -15 29 C-15.65226562 28.82984375 -16.30453125 28.6596875 -16.9765625 28.484375 C-23.49115771 26.67796807 -28.82753843 25.01341443 -32.9375 19.3125 C-34.36318988 14.86770215 -34.37453376 11.46529328 -33 7 C-30.56279711 2.49854697 -27.46424254 -0.13890167 -22.6875 -1.9375 C-14.36821728 -4.18105866 -7.95311449 -3.0297579 0 0 Z " fill="#8BC53F" transform="translate(1445,404)"/>
<path d="M0 0 C0 4.29 0 8.58 0 13 C3.3 13 6.6 13 10 13 C10 17.29 10 21.58 10 26 C6.7 26 3.4 26 0 26 C0.1409349 28.43787385 0.28754542 30.87517853 0.4375 33.3125 C0.47681641 34.00279297 0.51613281 34.69308594 0.55664062 35.40429688 C0.74927415 38.47161535 1.02322717 41.06968152 2 44 C5.465 44.495 5.465 44.495 9 45 C9 49.62 9 54.24 9 59 C3.09160349 60.9694655 -3.60299573 60.77046566 -9.5 58.875 C-13.6457745 55.76566913 -16.04179359 52.07072791 -17 47 C-17.07911543 45.34010718 -17.10778885 43.6773713 -17.09765625 42.015625 C-17.09282227 40.61376953 -17.09282227 40.61376953 -17.08789062 39.18359375 C-17.07951172 38.21550781 -17.07113281 37.24742187 -17.0625 36.25 C-17.05798828 35.26644531 -17.05347656 34.28289062 -17.04882812 33.26953125 C-17.03706483 30.84629209 -17.02062684 28.42317727 -17 26 C-18.65 26 -20.3 26 -22 26 C-22 21.71 -22 17.42 -22 13 C-20.35 13 -18.7 13 -17 13 C-17 10.03 -17 7.06 -17 4 C-14.35451646 3.33191847 -11.7086406 2.66546951 -9.0625 2 C-8.30775391 1.80921875 -7.55300781 1.6184375 -6.77539062 1.421875 C-1.11328125 0 -1.11328125 0 0 0 Z " fill="#8BC53F" transform="translate(973,389)"/>
<path d="M0 0 C0 5.61 0 11.22 0 17 C-2.24609375 17.16276042 -4.4921875 17.32552083 -6.73828125 17.48828125 C-9.51654006 18.1168683 -10.28969804 18.73481074 -12 21 C-12.5060736 23.8028729 -12.5060736 23.8028729 -12.51171875 26.98046875 C-12.54716797 28.14384766 -12.58261719 29.30722656 -12.61914062 30.50585938 C-12.64169922 31.72080078 -12.66425781 32.93574219 -12.6875 34.1875 C-12.72166016 35.41404297 -12.75582031 36.64058594 -12.79101562 37.90429688 C-12.87358776 40.93587377 -12.9384673 43.96792309 -13 47 C-18.94 47 -24.88 47 -31 47 C-31 31.82 -31 16.64 -31 1 C-26.05 1 -21.1 1 -16 1 C-16 2.65 -16 4.3 -16 6 C-15.52949219 5.65066406 -15.05898438 5.30132812 -14.57421875 4.94140625 C-13.95160156 4.48636719 -13.32898438 4.03132813 -12.6875 3.5625 C-12.07261719 3.11003906 -11.45773437 2.65757812 -10.82421875 2.19140625 C-7.00558828 -0.30256012 -4.78676311 0 0 0 Z " fill="#8BC53F" transform="translate(819,401)"/>
<path d="M0 0 C0 5.61 0 11.22 0 17 C-2.24609375 17.16276042 -4.4921875 17.32552083 -6.73828125 17.48828125 C-9.51654006 18.1168683 -10.28969804 18.73481074 -12 21 C-12.5060736 23.8028729 -12.5060736 23.8028729 -12.51171875 26.98046875 C-12.54716797 28.14384766 -12.58261719 29.30722656 -12.61914062 30.50585938 C-12.64169922 31.72080078 -12.66425781 32.93574219 -12.6875 34.1875 C-12.72166016 35.41404297 -12.75582031 36.64058594 -12.79101562 37.90429688 C-12.87358776 40.93587377 -12.9384673 43.96792309 -13 47 C-18.94 47 -24.88 47 -31 47 C-31 31.82 -31 16.64 -31 1 C-26.05 1 -21.1 1 -16 1 C-15.67 2.65 -15.34 4.3 -15 6 C-14.05125 5.195625 -13.1025 4.39125 -12.125 3.5625 C-7.63803732 -0.24166401 -6.7717203 0 0 0 Z " fill="#8BC53F" transform="translate(1079,401)"/>
<path d="M0 0 C0 5.61 0 11.22 0 17 C-1.588125 17.061875 -3.17625 17.12375 -4.8125 17.1875 C-7.51486417 17.18593502 -7.51486417 17.18593502 -10 18 C-12.67307846 21.59948833 -13.39299919 24.29816979 -13.51171875 28.73828125 C-13.54716797 29.80498047 -13.58261719 30.87167969 -13.61914062 31.97070312 C-13.64169922 33.07349609 -13.66425781 34.17628906 -13.6875 35.3125 C-13.72166016 36.43462891 -13.75582031 37.55675781 -13.79101562 38.71289062 C-13.87328865 41.47491357 -13.93832623 44.23744033 -14 47 C-19.61 47 -25.22 47 -31 47 C-31 31.82 -31 16.64 -31 1 C-26.05 1 -21.1 1 -16 1 C-15.67 2.65 -15.34 4.3 -15 6 C-14.236875 5.195625 -13.47375 4.39125 -12.6875 3.5625 C-8.24304617 -0.67523505 -6.55632809 0 0 0 Z " fill="#8BC53F" transform="translate(1625,401)"/>
<path d="M0 0 C5.61 0 11.22 0 17 0 C17 15.18 17 30.36 17 46 C11.39 46 5.78 46 0 46 C0 30.82 0 15.64 0 0 Z " fill="#8BC53F" transform="translate(1327,402)"/>
<path d="M0 0 C2.9375 1.4375 2.9375 1.4375 5 4 C5.58421182 7.08241286 5.67814692 9.93138519 5 13 C2.81854334 15.91521935 1.88522783 16.0259163 -1.875 16.875 C-5.76189676 17.24006765 -7.91839086 16.52131657 -11 14 C-12.60902074 10.78195852 -12.59842983 7.48052295 -12 4 C-8.50759059 -0.23322353 -5.32510964 -0.76072995 0 0 Z " fill="#8BC53F" transform="translate(1339,382)"/>
</svg>
