<?xml version="1.0" encoding="UTF-8" standalone="no"?><!DOCTYPE svg PUBLIC "-//W3C//DTD SVG 1.1//EN" "http://www.w3.org/Graphics/SVG/1.1/DTD/svg11.dtd"><svg width="100%" height="100%" viewBox="0 0 8334 2275" version="1.1" xmlns="http://www.w3.org/2000/svg" xmlns:xlink="http://www.w3.org/1999/xlink" xml:space="preserve" xmlns:serif="http://www.serif.com/" style="fill-rule:evenodd;clip-rule:evenodd;stroke-linejoin:round;stroke-miterlimit:2;"><path d="M1762.5,985.677c6.988,6.114 13.934,12.276 20.833,18.49c3.438,2.847 6.875,5.693 10.417,8.626c63.596,53.858 106.28,126.566 135.417,203.874c-20.128,24.895 -42.521,45.699 -66.667,66.667c-2.128,1.853 -4.255,3.706 -6.447,5.615c-17.177,14.936 -34.501,29.692 -51.886,44.385c-2.747,2.328 -5.493,4.657 -8.323,7.056c-166.873,141.019 -380.25,291.249 -607.562,290.08c-4.738,-0.02 -9.476,-0.041 -14.358,-0.062c-91.841,-1.276 -175.012,-32.391 -241.502,-97.073c-18.055,-18.652 -31.705,-40.225 -44.922,-62.5c2.063,-4.125 2.063,-4.125 4.167,-8.333c2.32,1.708 4.641,3.416 7.031,5.176c21.179,14.954 38.276,23.516 63.802,28.158c-0.586,-2.574 -1.173,-5.149 -1.777,-7.801c-6.995,-33.821 -8.053,-66.868 -7.858,-101.313c0.009,-2.86 0.018,-5.72 0.027,-8.666c0.214,-42.545 1.781,-82.772 13.775,-123.886c0.806,-2.772 1.611,-5.544 2.441,-8.4c20.207,-67.466 52.512,-129.103 97.559,-183.266c3.158,-3.84 6.316,-7.681 9.57,-11.637c79.931,-92.6 201.26,-155.941 323.299,-166.925c129.479,-8.893 259.953,19.071 362.964,101.74Z" style="fill:#fff;fill-rule:nonzero;"/><path d="M1591.667,316.667c-4.85,6.671 -4.85,6.671 -9.798,13.477c-32.379,44.631 -64.168,89.644 -95.719,134.861c-10.713,15.336 -21.465,30.643 -32.243,45.933c-1.993,2.827 -3.985,5.654 -6.038,8.566c-18.126,25.642 -36.533,51.08 -55.055,76.437c-3.218,4.426 -3.218,4.426 -6.501,8.942c-1.886,2.582 -3.771,5.164 -5.714,7.825c-6.008,8.318 -6.008,8.318 -11.017,18.962c-9.261,13.076 -16.421,14.815 -31.69,19.242c-7.536,2.3 -7.536,2.3 -15.224,4.647c-2.674,0.788 -5.349,1.576 -8.104,2.387c-140.483,41.76 -267.537,115.183 -372.896,217.054c-2.125,2.018 -4.25,4.035 -6.439,6.114c-6.401,6.082 -12.749,12.213 -19.082,18.365c-3.706,3.599 -7.412,7.197 -11.23,10.905c-8.93,10.274 -13.31,18.413 -17.415,31.283c6.875,8.25 13.75,16.5 20.833,25c13.08,-5.666 20.314,-11.567 29.167,-22.656c92.164,-108.44 228.923,-182.294 358.073,-236.979c3.203,-1.357 6.406,-2.713 9.706,-4.111c9.31,-3.868 18.657,-7.604 28.055,-11.254c4.932,-1.921 4.932,-1.921 9.963,-3.88c32.063,-11.695 32.063,-11.695 48.37,-4.454c9.831,8.822 9.831,8.822 19.792,20.312c3.588,4.109 7.176,8.218 10.872,12.451c13.872,16.377 27.508,32.943 40.951,49.674c7.391,9.343 7.391,9.343 15.885,17.562c-2.232,14.732 -2.232,14.732 -8.333,20.833c-7.43,1.293 -14.9,2.355 -22.38,3.32c-82.605,11.123 -156.72,26.715 -231.787,63.346c-2.647,1.284 -5.295,2.567 -8.022,3.89c-61.592,30.285 -113.54,69.432 -162.811,116.943c-3.244,2.981 -6.488,5.962 -9.831,9.033c-83.214,78.64 -140.055,195.221 -164.339,306.217c-6.085,16.947 -13.263,23.281 -27.393,34.229c-3.985,3.169 -7.971,6.338 -12.077,9.603c-10.258,6.848 -16.326,9.281 -28.027,11.751c-28.235,-32.338 -56.264,-64.748 -83.285,-98.112c-12.163,-14.832 -24.789,-29.236 -37.549,-43.555c-15.532,2.485 -27.674,6.907 -41.602,14.16c-3.899,1.998 -7.799,3.996 -11.816,6.055c-8.073,4.198 -16.146,8.397 -24.219,12.598c-23.756,12.171 -46.802,21.956 -72.363,29.688c10.834,17.046 10.834,17.046 23.958,32.292c5.208,5.208 5.208,5.208 5.208,13.542c2.417,-0.193 4.834,-0.387 7.324,-0.586c23.56,-1.089 36.546,1.349 55.176,17.253c10.692,16.039 10.629,26.812 12.5,45.833c18.563,6.188 18.563,6.188 37.5,12.5c-11.83,15.829 -24.37,27.851 -39.844,40.104c-18.324,14.54 -18.324,14.54 -35.156,30.729c-4.125,-1.375 -8.25,-2.75 -12.5,-4.167l0,-37.5c-3.523,0.516 -7.047,1.031 -10.677,1.562c-19.722,-2.151 -30.546,-11.907 -43.49,-26.562c-4.299,-12.898 -3.715,-18.367 -2.344,-31.51c0.628,-28.411 -16.443,-44.69 -35.156,-64.323c-20.882,2.635 -37.978,11.749 -56.592,20.98c-3.392,1.659 -6.785,3.318 -10.28,5.027c-10.794,5.284 -21.57,10.602 -32.347,15.921c-7.331,3.597 -14.664,7.191 -21.997,10.783c-17.941,8.794 -35.866,17.617 -53.784,26.457c-4.167,-12.5 -4.167,-12.5 0.621,-23.873c2.47,-4.561 4.94,-9.123 7.485,-13.822c2.006,-3.741 2.006,-3.741 4.052,-7.558c4.413,-8.203 8.887,-16.37 13.363,-24.539c3.099,-5.726 6.194,-11.454 9.288,-17.183c19.76,-36.491 40.08,-72.648 60.701,-108.659c22.084,-38.808 42.778,-78.326 63.551,-117.844c19.449,-36.974 39.163,-73.714 59.949,-109.96c21.619,-37.706 42.189,-75.902 62.5,-114.323c1.518,-2.871 3.035,-5.741 4.598,-8.699c2.262,-4.279 2.262,-4.279 4.569,-8.644c2.999,-5.672 5.997,-11.345 8.997,-17.017c1.462,-2.765 2.924,-5.53 4.43,-8.379c14.461,-27.317 28.96,-54.632 44.201,-81.523c10.424,-18.581 19.925,-37.014 28.087,-56.703c17.106,-39.206 33.137,-69.793 73.688,-87.38c22.012,-7.981 44.297,-14.449 66.846,-20.718c9.755,-2.997 19.499,-6.03 29.232,-9.098c19.685,-6.171 39.408,-12.181 59.182,-18.064c36.049,-10.823 71.46,-23.286 106.893,-35.957c18.069,-6.44 36.188,-12.735 54.303,-19.042c5.494,-1.917 5.494,-1.917 11.099,-3.872c47.701,-16.638 95.452,-33.132 143.198,-49.643c69.558,-24.057 139.096,-48.166 208.594,-72.396c3.722,-1.296 7.444,-2.593 11.278,-3.929c7.148,-2.49 14.296,-4.983 21.443,-7.477c6.623,-2.311 13.249,-4.617 19.875,-6.919c21.279,-7.417 42.351,-15.271 63.263,-23.678c10.114,-2.584 15.79,-1.488 25.546,1.898Zm-518.511,265.179c-6.974,2.402 -6.974,2.402 -14.088,4.853c-5.039,1.779 -10.077,3.558 -15.269,5.391c-5.259,1.828 -10.52,3.652 -15.782,5.473c-13.902,4.822 -27.787,9.69 -41.669,14.567c-13.91,4.877 -27.836,9.71 -41.759,14.547c-38.022,13.216 -38.022,13.216 -75.977,26.621c-10.129,3.531 -20.233,6.902 -30.455,10.133c-5.199,1.702 -10.398,3.405 -15.755,5.159c-4.698,1.483 -9.395,2.966 -14.235,4.493c-23.627,11.655 -31.674,33.935 -41.761,57.126c-3.562,7.521 -7.125,15.042 -10.707,22.553c-3.666,7.743 -7.249,15.52 -10.83,23.303c-7.249,15.568 -15.127,30.75 -23.222,45.892c-3.81,7.14 -3.81,7.14 -7.698,14.425c-4.894,9.13 -9.791,18.258 -14.691,27.384c-2.156,4.099 -4.312,8.199 -6.534,12.423c-1.92,3.604 -3.84,7.209 -5.818,10.922c-1.179,2.879 -2.359,5.757 -3.574,8.723c1.375,2.75 2.75,5.5 4.167,8.333c22.759,-31.033 45.02,-62.371 66.927,-94.01c5.604,-8.079 11.208,-16.157 16.813,-24.235c2.686,-3.884 5.372,-7.768 8.14,-11.77c5.509,-7.906 11.071,-15.776 16.679,-23.612c4.005,-5.608 4.005,-5.608 8.091,-11.33c2.409,-3.34 4.817,-6.681 7.299,-10.123c5.96,-7.8 5.96,-7.8 5.217,-16.586c5.158,-1.584 5.158,-1.584 10.421,-3.2c16.56,-5.83 32.044,-12.992 47.847,-20.595c3.19,-1.52 6.38,-3.039 9.667,-4.605c6.821,-3.25 13.638,-6.507 20.453,-9.769c17.778,-8.509 35.578,-16.972 53.377,-25.437c5.309,-2.527 5.309,-2.527 10.725,-5.104c46.198,-21.961 92.661,-43.344 139.177,-64.622c-15.389,-5.13 -20.067,-2.593 -35.178,2.679Zm-393.989,322.321l4.167,8.333l-4.167,-8.333Z" style="fill:#fff;fill-rule:nonzero;"/><path d="M1941.667,1291.667l8.333,0c11.175,70.371 11.706,156.304 -8.333,225c-0.806,2.772 -1.611,5.544 -2.441,8.4c-20.959,69.978 -54.823,131.643 -101.725,187.433c-2.943,3.625 -5.887,7.251 -8.919,10.986c-77.474,91.391 -201.014,152.72 -319.784,163.409c-122.228,8.395 -240.27,-16.593 -342.131,-86.896c2.062,-4.125 2.062,-4.125 4.167,-8.333c2.487,0.602 4.974,1.203 7.536,1.823c121.242,25.942 237.281,-18.144 339.567,-81.136c84.07,-54.919 157.783,-121.213 228.815,-191.708c4.179,-4.145 8.364,-8.285 12.556,-12.417c24.827,-24.512 48.145,-49.689 69.832,-77.061c8.578,-10.603 17.587,-20.64 26.85,-30.647c24.809,-27.238 46.916,-56.595 68.571,-86.377c2.208,-3.035 4.415,-6.069 6.689,-9.196c1.848,-2.605 3.695,-5.21 5.599,-7.894c2.385,-2.667 2.385,-2.667 4.818,-5.387Z" style="fill:#fff;fill-rule:nonzero;"/><path d="M2987.5,854.167c31.045,-0.292 62.09,-0.513 93.136,-0.648c14.422,-0.065 28.844,-0.152 43.266,-0.295c16.653,-0.164 33.305,-0.223 49.959,-0.278c7.614,-0.097 7.614,-0.097 15.383,-0.196c52.454,-0.01 104.825,4.986 143.944,42.627c28.055,30.063 31.273,57.047 30.599,97.559c-2.999,35.914 -20.968,62.123 -47.119,86.23c-10.726,7.739 -21.701,14.549 -33.333,20.833c56.02,118.083 56.02,118.083 147.135,203.385c5.519,2.618 5.519,2.618 11.149,5.29c2.766,1.262 5.532,2.524 8.382,3.825c-1.375,9.625 -2.75,19.25 -4.167,29.167c-121.316,2.242 -121.316,2.242 -164.844,-33.854c-30.518,-35.996 -52.128,-76.275 -73.828,-117.936c-17.15,-32.572 -17.15,-32.572 -40.495,-60.71c-8.671,-2.774 -8.671,-2.774 -16.667,-4.167c0.496,19.049 1.013,38.097 1.551,57.144c0.18,6.47 0.353,12.939 0.521,19.409c0.243,9.341 0.508,18.68 0.776,28.02c0.07,2.857 0.139,5.714 0.211,8.658c0.548,18.145 2.416,35.546 5.274,53.435c16.5,4.125 33,8.25 50,12.5l0,33.333l-220.833,0l0,-33.333c2.911,-0.757 5.822,-1.515 8.822,-2.295c3.792,-1.047 7.584,-2.095 11.491,-3.174c3.771,-1.015 7.541,-2.03 11.426,-3.076c11.266,-3.4 11.266,-3.4 18.262,-16.455c0.854,-11.739 1.224,-23.07 1.211,-34.813c0.028,-3.551 0.056,-7.103 0.085,-10.762c0.079,-11.756 0.095,-23.511 0.104,-35.268c0.027,-8.163 0.055,-16.326 0.084,-24.489c0.05,-17.118 0.065,-34.235 0.06,-51.352c-0.001,-21.947 0.113,-43.892 0.256,-65.839c0.093,-16.861 0.11,-33.721 0.105,-50.582c0.01,-8.092 0.047,-16.184 0.111,-24.276c0.082,-11.313 0.058,-22.62 0.007,-33.933c0.047,-3.349 0.094,-6.698 0.142,-10.149c-0.169,-14.981 -0.829,-23.456 -10.069,-35.531c-9.085,-6.571 -15.544,-9.362 -26.473,-11.548c-5.156,-1.031 -10.312,-2.062 -15.625,-3.125l0,-33.333Zm162.5,45.833c-1.819,8.389 -1.819,8.389 -1.419,18.158c0.001,3.753 0.002,7.507 0.003,11.374c0.065,4.058 0.129,8.117 0.196,12.298c0.018,4.15 0.035,8.3 0.054,12.576c0.07,13.29 0.227,26.577 0.386,39.866c0.063,8.995 0.12,17.99 0.171,26.986c0.138,22.082 0.347,44.163 0.61,66.243c30.897,0.277 54.386,-2.571 78.906,-22.396c23.923,-30.447 20.368,-69.861 16.927,-106.771c-4.724,-21.324 -11.521,-36.25 -26.562,-52.083c-23.51,-13.434 -45.524,-22.081 -69.271,-6.25Z" style="fill:#fff;fill-rule:nonzero;"/><path d="M4329.167,850c32.132,-0.195 64.263,-0.342 96.395,-0.432c14.927,-0.043 29.853,-0.102 44.779,-0.197c14.454,-0.092 28.907,-0.141 43.362,-0.162c8.09,-0.022 16.18,-0.087 24.27,-0.153c84.217,-0.01 160.836,14.462 223.746,73.6c48.588,51.667 53.976,110.782 52.1,178.857c-2.984,65.162 -28.426,120.516 -76.318,165.153c-64.363,53.323 -137.916,67.408 -219.124,67.074c-8.123,-0.009 -8.123,-0.009 -16.41,-0.018c-14.309,-0.016 -28.618,-0.057 -42.927,-0.103c-14.637,-0.043 -29.273,-0.062 -43.91,-0.083c-28.654,-0.045 -57.308,-0.116 -85.962,-0.203l0,-33.333c15.125,-4.125 30.25,-8.25 45.833,-12.5c6.27,-22.373 9.551,-42.673 9.412,-65.974c0.015,-3.074 0.029,-6.148 0.044,-9.315c0.036,-10.055 0.012,-20.109 -0.016,-30.164c0.006,-7.056 0.014,-14.111 0.024,-21.167c0.012,-14.748 -0.005,-29.495 -0.045,-44.243c-0.047,-18.819 -0.02,-37.637 0.03,-56.457c0.03,-14.56 0.02,-29.119 -0.001,-43.679c-0.006,-6.935 0.001,-13.87 0.021,-20.805c0.075,-34.2 0.094,-66.703 -9.469,-99.863c-15.125,-4.125 -30.25,-8.25 -45.833,-12.5l0,-33.333Zm166.667,50c-4.991,14.973 -4.632,28.485 -4.456,44.055c0.02,3.206 0.04,6.412 0.06,9.716c0.074,10.614 0.181,21.227 0.294,31.841c0.07,7.386 0.139,14.771 0.208,22.157c0.152,15.496 0.324,30.992 0.506,46.487c0.229,19.815 0.381,39.63 0.515,59.445c0.116,15.264 0.287,30.527 0.473,45.79c0.08,7.302 0.139,14.605 0.178,21.907c0.06,10.242 0.197,20.481 0.353,30.722c0.001,2.992 0.001,5.985 0.002,9.068c0.487,23.608 4.987,44.734 22.439,61.623c24.573,13.403 56.157,12.926 82.617,5.713c38.557,-14.718 57.691,-35.129 75.977,-71.859c15.685,-40.757 17.511,-80.472 17.708,-123.698c0.086,-4.616 0.172,-9.233 0.26,-13.989c0.267,-57.063 -12.607,-110.779 -52.083,-153.459c-35.769,-33.076 -70.467,-36.242 -117.301,-35.254c-15.62,0.213 -15.62,0.213 -27.751,9.733Z" style="fill:#fff;fill-rule:nonzero;"/><path d="M7375.749,878.988c53.245,38.569 87.828,93.525 101.823,157.829c8.595,71.044 1.898,144.774 -40.072,204.85c-11.743,14.722 -24.213,28.332 -37.5,41.667c-2.304,2.401 -4.608,4.802 -6.982,7.275c-43.337,41.401 -105.924,54.589 -163.851,55.225c-57.154,-3.215 -104.328,-19.802 -150,-54.167c-2.562,-1.875 -5.124,-3.749 -7.764,-5.68c-43.871,-34.533 -70.292,-90.015 -79.736,-144.32c-6.857,-83.907 6.825,-159.33 61.979,-225c84.38,-87.505 219.769,-101.672 322.103,-37.679Zm-217.415,29.346c-49.328,69.714 -54.774,158.392 -40.885,240.625c10.512,55.886 28.826,107.107 77.083,140.625c22.996,14.705 45.187,17.691 72.135,14.583c25.812,-7.776 44.029,-23.262 58.333,-45.833c25.441,-49.965 30.806,-97.102 30.729,-152.604c-0.002,-2.765 -0.005,-5.529 -0.007,-8.378c-0.243,-64.595 -7.941,-131.279 -51.849,-182.394c-23.66,-22.712 -46.801,-33.394 -79.134,-37.354c-25.473,3.252 -48.313,12.159 -66.406,30.729Z" style="fill:#fff;fill-rule:nonzero;"/><path d="M7508.333,850c21.268,-1.037 42.52,-1.789 63.807,-2.289c7.224,-0.208 14.446,-0.492 21.663,-0.854c59.807,-2.927 59.807,-2.927 81.369,11.798c9.516,10.518 17.245,21.047 24.827,33.012c3.48,4.168 6.961,8.336 10.547,12.63c4.061,5.092 4.061,5.092 8.203,10.286c12.117,14.978 24.523,29.511 37.5,43.75c16.329,17.916 31.632,36.497 46.875,55.339c9.104,11.001 18.507,21.609 28.125,32.161c16.187,17.766 31.469,36.113 46.517,54.85c12.638,15.343 25.749,30.246 38.9,45.15c0.105,-20.065 0.18,-40.13 0.229,-60.196c0.021,-6.791 0.049,-13.582 0.085,-20.374c0.19,-36.207 -0.046,-72.342 -1.893,-108.509c-0.128,-2.897 -0.255,-5.793 -0.386,-8.778c-0.948,-16.092 -3.006,-29.465 -10.535,-43.81c-20.21,-13.642 -43.037,-16.864 -66.667,-20.833l0,-33.333l187.5,0l0,33.333c-2.863,0.661 -5.726,1.321 -8.675,2.002c-3.754,0.972 -7.509,1.944 -11.377,2.946c-3.722,0.918 -7.444,1.837 -11.279,2.783c-13.628,6.288 -16.334,12.155 -22.835,25.602c-2.38,13.925 -2.38,13.925 -2.782,29.329c-0.205,4.335 -0.205,4.335 -0.414,8.757c-1.635,37.801 -1.939,75.646 -2.289,113.476c-0.086,7.939 -0.173,15.877 -0.262,23.816c-0.227,20.658 -0.434,41.317 -0.637,61.976c-0.211,21.175 -0.442,42.35 -0.671,63.525c-0.445,41.374 -0.868,82.747 -1.278,124.121c-5.99,0.278 -11.983,0.475 -17.977,0.64c-5.005,0.178 -5.005,0.178 -10.112,0.36c-9.411,-1 -9.411,-1 -21.781,-11.237c-3.631,-4.571 -7.144,-9.238 -10.547,-13.981c-1.914,-2.459 -3.828,-4.919 -5.8,-7.452c-3.915,-5.036 -7.786,-10.106 -11.611,-15.21c-7.94,-10.507 -16.362,-20.594 -24.776,-30.723c-9.103,-11.168 -18.191,-22.348 -27.279,-33.529c-18.843,-23.119 -37.946,-45.989 -57.257,-68.715c-15.192,-17.906 -30.067,-36.054 -44.891,-54.266c-12.62,-15.349 -25.483,-30.486 -38.352,-45.626c-16.117,-18.993 -31.914,-38.228 -47.618,-57.564c-6.321,-7.988 -6.321,-7.988 -11.165,-12.695c-0.193,33.794 -0.341,67.588 -0.432,101.382c-0.043,15.694 -0.102,31.387 -0.197,47.08c-0.091,15.156 -0.14,30.312 -0.162,45.468c-0.015,5.771 -0.045,11.542 -0.09,17.313c-0.061,8.107 -0.064,16.215 -0.065,24.322c-0.028,6.912 -0.028,6.912 -0.056,13.963c1.386,17.938 3.8,33.128 17.669,45.264c17.559,7.316 35.455,10.453 54.167,13.542l0,33.333l-187.5,0l0,-33.333c17.875,-4.125 35.75,-8.25 54.167,-12.5c8.981,-67.811 9.898,-135.453 9.878,-203.73c-0.001,-15.475 0.114,-30.947 0.256,-46.422c0.093,-12.064 0.11,-24.128 0.105,-36.193c0.01,-5.709 0.046,-11.419 0.111,-17.128c0.584,-42.913 0.584,-42.913 -18.684,-79.861c-16.257,-13.096 -34.142,-16.421 -54.167,-20.833l0,-33.333Z" style="fill:#fff;fill-rule:nonzero;"/><path d="M2900,858.333c4.125,63.938 4.125,63.938 8.333,129.167c-11.287,5.643 -20.872,4.438 -33.333,4.167c-1.893,-5.43 -1.893,-5.43 -3.825,-10.97c-16.53,-46.412 -16.53,-46.412 -52.946,-77.572c-41.845,-18.913 -89.867,-21.793 -133.171,-7.113c-36.487,14.465 -55.558,35.018 -72.559,70.654c-29.637,75.186 -28.387,178.539 1.986,253.19c16.171,36.697 36.009,64.774 74.056,79.883c27.917,7.776 59.684,9.381 87.24,-0.521c12.442,-6.211 12.442,-6.211 14.491,-16.992c2.501,-20.435 2.164,-40.831 2.176,-61.393c0.051,-4.501 0.102,-9.002 0.155,-13.639c0.008,-4.351 0.016,-8.701 0.024,-13.184c0.017,-3.948 0.034,-7.896 0.052,-11.963c-1.107,-12.263 -3.707,-21.116 -9.345,-32.048c-10.748,-5.061 -10.748,-5.061 -23.177,-7.292c-22.475,-5.027 -22.475,-5.027 -26.823,-9.375l0,-29.167l216.667,0l0,29.167c-2.659,1.106 -5.317,2.213 -8.057,3.353c-3.443,1.472 -6.886,2.943 -10.433,4.46c-3.432,1.45 -6.864,2.9 -10.4,4.395c-9.266,3.728 -9.266,3.728 -12.777,12.793c-0.409,9.645 -0.545,19.302 -0.553,28.955c-0.006,4.318 -0.006,4.318 -0.012,8.723c-0.003,6.105 0.005,12.21 0.022,18.315c0.022,9.263 0,18.525 -0.026,27.788c0.003,5.943 0.008,11.887 0.016,17.83c0.007,8.07 0.007,8.07 0.014,16.304c0.534,15.274 2.257,29.527 4.706,44.585c-16.591,4.507 -33.263,8.568 -50,12.5c-4.947,1.192 -9.894,2.385 -14.99,3.613c-38.458,8.084 -75.928,10.193 -115.218,10.449c-4.831,0.057 -9.663,0.115 -14.64,0.174c-70.896,-0.377 -135.98,-20.589 -187.72,-70.714c-49.186,-55.081 -66.192,-123.238 -62.744,-195.866c4.5,-66.874 29.335,-123.986 78.174,-170.247c97.956,-84.222 235.764,-72.643 354.639,-52.409Z" style="fill:#fff;fill-rule:nonzero;"/><path d="M3920.833,850l337.5,0c8.333,91.667 8.333,91.667 8.333,120.833c-9.625,2.75 -19.25,5.5 -29.167,8.333c-2.213,-4.667 -4.426,-9.335 -6.706,-14.144c-2.971,-6.137 -5.944,-12.273 -8.919,-18.408c-1.45,-3.075 -2.9,-6.15 -4.395,-9.318c-1.45,-2.968 -2.9,-5.935 -4.395,-8.993c-1.309,-2.728 -2.618,-5.455 -3.967,-8.265c-6.244,-9.505 -11.757,-14.319 -21.619,-20.039c-11.657,-2.088 -11.657,-2.088 -24.414,-2.132c-4.188,-0.138 -8.376,-0.276 -12.691,-0.418c-5.286,-0.104 -10.573,-0.207 -16.02,-0.314c-16.844,-0.43 -33.688,-0.859 -51.042,-1.302l0,162.5c19.98,-0.645 19.98,-0.645 40.365,-1.302c6.241,-0.156 6.241,-0.156 12.609,-0.314c27.821,-0.978 27.821,-0.978 51.193,-15.05c5.126,-10.252 5.126,-10.252 7.552,-21.615c0.972,-3.754 1.944,-7.509 2.946,-11.377c0.661,-2.863 1.321,-5.726 2.002,-8.675l33.333,0l0,162.5l-33.333,0c-0.865,-3.513 -1.729,-7.025 -2.62,-10.645c-1.284,-4.565 -2.567,-9.131 -3.89,-13.835c-1.208,-4.544 -2.417,-9.088 -3.662,-13.77c-5.488,-12.939 -5.488,-12.939 -19.156,-16.49c-17.774,-4.469 -35.492,-5.448 -53.745,-6.199c-3.247,-0.161 -6.494,-0.322 -9.839,-0.488c-7.917,-0.389 -15.836,-0.736 -23.755,-1.074c0.493,22.838 1.011,45.675 1.551,68.512c0.18,7.768 0.354,15.535 0.521,23.303c0.241,11.171 0.506,22.34 0.776,33.51c0.104,5.203 0.104,5.203 0.211,10.511c0.083,3.252 0.166,6.504 0.252,9.855c0.097,4.275 0.097,4.275 0.196,8.636c0.714,8.848 1.851,16.46 4.826,24.84c18.772,9.015 37.339,9.663 57.812,9.375c2.951,-0.037 5.901,-0.075 8.942,-0.113c39.278,-0.392 39.278,-0.392 71.267,-20.981c16.555,-21.376 26.492,-46.885 36.979,-71.615c9.625,1.375 19.25,2.75 29.167,4.167c-1.664,46.34 -11.082,87.014 -20.833,133.333l-366.667,0l0,-33.333c3.813,-0.661 7.627,-1.321 11.556,-2.002c7.428,-1.458 7.428,-1.458 15.007,-2.946c4.931,-0.918 9.861,-1.837 14.941,-2.783c13.079,-3.39 13.079,-3.39 17.558,-13.32c4.405,-15.733 4.569,-30.698 4.451,-46.894c0.008,-3.431 0.016,-6.861 0.024,-10.396c0.015,-11.305 -0.029,-22.609 -0.076,-33.915c-0.005,-7.871 -0.007,-15.742 -0.006,-23.612c-0.007,-16.479 -0.041,-32.958 -0.097,-49.438c-0.071,-21.124 -0.087,-42.248 -0.084,-63.372c-0.001,-16.246 -0.024,-32.492 -0.054,-48.738c-0.013,-7.79 -0.021,-15.579 -0.025,-23.369c-0.009,-10.881 -0.046,-21.762 -0.09,-32.643c0.002,-3.219 0.004,-6.438 0.006,-9.755c-0.088,-14.665 -1.191,-26.637 -4.778,-40.985c-15.125,-4.125 -30.25,-8.25 -45.833,-12.5l0,-33.333Z" style="fill:#fff;fill-rule:nonzero;"/><path d="M4854.167,850l225,0l0,33.333c-16.5,4.125 -33,8.25 -50,12.5c-4.006,30.309 -4.837,60.039 -4.867,90.592c-0.014,5.017 -0.028,10.035 -0.042,15.204c-0.021,10.569 -0.031,21.137 -0.03,31.706c-0.009,16.064 -0.085,32.127 -0.164,48.191c-0.012,10.314 -0.02,20.627 -0.024,30.941c-0.03,4.75 -0.06,9.499 -0.091,14.393c0.134,47.625 3.211,94.501 36.989,130.692c25.68,19.195 57.868,24.13 89.062,21.615c22.779,-3.495 40.397,-9.917 58.333,-25c29.453,-42.543 29.83,-93.708 29.72,-143.831c0.006,-6.124 0.006,-6.124 0.012,-12.372c0.003,-8.589 -0.005,-17.179 -0.022,-25.768c-0.022,-13 -0,-26 0.026,-39c1.139,-69.223 1.139,-69.223 -8.903,-137.362c-22,-4.125 -44,-8.25 -66.667,-12.5l0,-33.333l183.333,0l0,33.333c-16.5,4.125 -33,8.25 -50,12.5c-2.837,17.024 -4.715,30.952 -4.89,47.817c-0.056,4.371 -0.112,8.742 -0.17,13.246c-0.043,4.675 -0.087,9.349 -0.132,14.165c-0.137,10.059 -0.276,20.117 -0.415,30.176c-0.196,15.732 -0.381,31.464 -0.546,47.196c-2.137,194.558 -2.137,194.558 -52.18,247.4c-39.319,38.147 -87.79,50.541 -141.667,50c-36.724,-1.885 -71.877,-6.24 -104.167,-25c-4.211,-2.32 -8.422,-4.641 -12.76,-7.031c-41.958,-33.031 -58.847,-69.835 -66.406,-122.135c-0.419,-9.244 -0.646,-18.498 -0.723,-27.752c-0.084,-8.155 -0.084,-8.155 -0.17,-16.474c-0.021,-2.874 -0.042,-5.748 -0.064,-8.709c-0.069,-9.057 -0.166,-18.113 -0.27,-27.17c-0.294,-25.734 -0.546,-51.469 -0.759,-77.204c-0.133,-15.78 -0.305,-31.559 -0.501,-47.338c-0.067,-5.995 -0.118,-11.99 -0.154,-17.986c-0.051,-8.385 -0.156,-16.77 -0.263,-25.155c-0.043,-4.764 -0.086,-9.527 -0.13,-14.435c-1.15,-12.974 -3.389,-22.117 -9.466,-33.61c-10.881,-5.209 -10.881,-5.209 -23.438,-7.552c-6.268,-1.458 -6.268,-1.458 -12.663,-2.946c-3.212,-0.661 -6.424,-1.321 -9.733,-2.002l0,-33.333Z" style="fill:#fff;fill-rule:nonzero;"/><path d="M6100,841.667c19.597,49.63 38.239,99.537 56.293,149.746c22.765,63.221 45.889,126.305 69.853,189.083c2.686,7.043 5.362,14.089 8.026,21.14c3.703,9.786 7.447,19.556 11.205,29.321c1.604,4.265 1.604,4.265 3.241,8.616c12.158,31.92 12.158,31.92 37.124,53.102c3.674,0.87 7.348,1.74 11.133,2.637c3.717,0.935 7.434,1.869 11.263,2.832c2.814,0.612 5.629,1.225 8.529,1.855l0,33.333l-220.833,0l0,-33.333c13.75,-4.125 27.5,-8.25 41.667,-12.5c-5.307,-29.189 -14.576,-56.202 -24.864,-83.943c-8.47,-23.125 -8.47,-23.125 -8.47,-36.891l-116.667,0c-4.125,13.75 -8.25,27.5 -12.5,41.667c-4.648,14.768 -9.309,29.529 -14.038,44.271c-5.039,15.068 -5.039,15.068 -6.795,30.729c17.875,5.5 35.75,11 54.167,16.667l0,33.333l-175,0l0,-33.333c3.115,-0.661 6.23,-1.321 9.44,-2.002c6.155,-1.458 6.155,-1.458 12.435,-2.946c4.061,-0.918 8.121,-1.837 12.305,-2.783c21.178,-8.666 28.336,-24.673 37.044,-44.775c3.382,-8.35 6.72,-16.718 10.026,-25.098c1.89,-4.712 3.78,-9.424 5.727,-14.278c7.187,-17.957 14.272,-35.953 21.356,-53.951c2.316,-5.877 2.316,-5.877 4.678,-11.872c17.799,-45.179 35.557,-90.374 53.234,-135.601c3.407,-8.707 6.825,-17.409 10.253,-26.108c8.708,-22.139 17.196,-44.329 25.353,-66.678c2.48,-6.671 2.48,-6.671 5.011,-13.476c3.147,-8.479 6.228,-16.982 9.234,-25.512c1.412,-3.767 2.824,-7.534 4.279,-11.415c1.2,-3.323 2.4,-6.647 3.637,-10.071c5.155,-7.601 5.155,-7.601 15.079,-10.788c10.909,-0.979 10.909,-0.979 27.576,-0.979Zm-54.167,170.833c-16.648,35.217 -28.923,71.55 -41.667,108.333l79.167,0c-2.972,-14.861 -6.163,-27.811 -10.954,-42.008c-1.302,-3.881 -2.605,-7.761 -3.947,-11.759c-1.356,-3.999 -2.712,-7.998 -4.11,-12.118c-2.058,-6.119 -2.058,-6.119 -4.159,-12.362c-3.377,-10.033 -6.765,-20.061 -10.164,-30.086l-4.167,0Z" style="fill:#fff;fill-rule:nonzero;"/><path d="M5791.667,854.167c6.83,6.83 5.587,15.091 6.396,24.512c0.363,4.179 0.725,8.357 1.099,12.663c0.363,4.404 0.725,8.809 1.099,13.346c0.568,6.461 0.568,6.461 1.147,13.053c1.861,21.946 3.227,43.569 2.759,65.592c-11,2.75 -22,5.5 -33.333,8.333c-1.262,-3.572 -2.524,-7.144 -3.825,-10.824c-16.001,-43.669 -26.197,-69.163 -69.092,-89.404c-34.182,-12.925 -73.938,-12.498 -108.398,-0.7c-33.137,16.308 -55.611,42.178 -68.848,76.302c-1.982,6.002 -1.982,6.002 -4.004,12.126c-1.982,5.809 -1.982,5.809 -4.004,11.735c-20.761,73.043 -15.023,166.487 20.671,234.098c21.985,34.492 49.982,61.565 89.941,73.031c35.202,6.892 66.264,3.155 97.559,-14.697c31.372,-21.431 46.138,-58.644 62.5,-91.667c23.958,3.646 23.958,3.646 33.333,8.333c-4.683,28.565 -12.224,55.746 -20.833,83.333c-1.088,3.539 -2.177,7.077 -3.298,10.723c-1.59,5.005 -1.59,5.005 -3.212,10.11c-1.426,4.512 -1.426,4.512 -2.881,9.115c-3.109,7.552 -3.109,7.552 -11.442,15.885c-10.727,2.586 -21.169,4.709 -32.031,6.51c-3.183,0.533 -6.365,1.065 -9.645,1.614c-90.995,14.599 -186.468,12.124 -264.883,-42.012c-51.512,-39.65 -81.032,-93.239 -90.479,-157.66c-8.99,-74.874 5.811,-143.43 51.204,-204.287c86.84,-106.734 239.044,-104.815 362.5,-79.167Z" style="fill:#fff;fill-rule:nonzero;"/><path d="M6270.833,833.333c23.162,-1.579 23.162,-1.579 32.213,6.198c13.236,8.824 25.541,8.051 40.915,7.92c3.146,0.022 6.291,0.044 9.532,0.066c10.381,0.055 20.76,0.019 31.142,-0.024c7.223,0.008 14.446,0.021 21.668,0.036c15.131,0.018 30.262,-0.008 45.393,-0.067c19.392,-0.071 38.782,-0.03 58.174,0.045c14.913,0.045 29.825,0.031 44.738,-0.002c7.15,-0.008 14.3,0.002 21.45,0.031c9.995,0.032 19.986,-0.017 29.98,-0.086c2.953,0.025 5.906,0.051 8.948,0.077c17.914,-0.231 25.251,-3.736 39.18,-14.194l29.167,0c1.375,46.75 2.75,93.5 4.167,141.667c-11,1.375 -22,2.75 -33.333,4.167c-1.893,-5.43 -1.893,-5.43 -3.825,-10.97c-13.204,-37.729 -13.204,-37.729 -37.842,-68.197c-17.428,-4.867 -35.397,-5.46 -53.385,-6.51c-4.33,-0.27 -4.33,-0.27 -8.748,-0.545c-7.066,-0.439 -14.133,-0.86 -21.2,-1.278c0.351,49.15 0.747,98.299 1.198,147.448c0.208,22.821 0.401,45.642 0.56,68.464c0.153,22.019 0.347,44.036 0.567,66.055c0.077,8.406 0.14,16.812 0.189,25.218c0.07,11.762 0.191,23.522 0.324,35.284c0.009,3.486 0.018,6.971 0.027,10.562c-0.036,22.841 -0.036,22.841 9.635,42.803c11.908,4.744 11.908,4.744 25.521,7.292c6.848,1.515 6.848,1.515 13.835,3.06c3.513,0.709 7.025,1.418 10.645,2.148l0,33.333l-233.333,0l0,-33.333c3.212,-0.806 6.424,-1.611 9.733,-2.441c4.179,-1.085 8.357,-2.17 12.663,-3.288c4.157,-1.063 8.314,-2.127 12.598,-3.223c11.362,-2.815 11.362,-2.815 19.173,-11.882c3.972,-23.234 4.845,-46.101 5.022,-69.629c0.041,-3.459 0.082,-6.919 0.125,-10.483c0.131,-11.317 0.234,-22.634 0.338,-33.951c0.086,-7.893 0.173,-15.786 0.262,-23.679c0.229,-20.686 0.435,-41.373 0.637,-62.059c0.21,-21.144 0.442,-42.288 0.671,-63.432c0.447,-41.422 0.87,-82.845 1.278,-124.268c-10.681,0.477 -21.355,1.005 -32.031,1.562c-4.508,0.193 -4.508,0.193 -9.106,0.391c-22.065,1.209 -39.217,3.206 -55.282,19.71c-8.609,12.967 -13.891,25.44 -19.206,40.055c-1.783,4.839 -3.566,9.679 -5.404,14.665c-1.311,3.668 -2.621,7.337 -3.971,11.117l-33.333,0c-0.595,-33.149 1.175,-65.693 4.167,-98.698c0.397,-4.563 0.795,-9.125 1.204,-13.826c0.97,-11.105 1.958,-22.207 2.962,-33.309Z" style="fill:#fff;fill-rule:nonzero;"/><rect x="2225" y="641.667" width="58.333" height="1295.833" style="fill:#fff;fill-rule:nonzero;"/><path d="M6720.833,850l220.833,0l0,33.333c-16.5,4.125 -33,8.25 -50,12.5c-0.096,49.837 -0.171,99.673 -0.216,149.51c-0.022,23.139 -0.051,46.278 -0.098,69.417c-0.045,22.315 -0.07,44.631 -0.081,66.946c-0.008,8.529 -0.023,17.058 -0.045,25.588c-0.03,11.913 -0.034,23.825 -0.032,35.738c-0.022,5.332 -0.022,5.332 -0.045,10.771c-0.443,17.403 -0.443,17.403 4.685,33.697c10.727,3.803 10.727,3.803 23.177,6.771c4.216,1.085 8.433,2.17 12.777,3.288c3.26,0.806 6.521,1.611 9.88,2.441l0,33.333l-220.833,0l0,-33.333c16.5,-4.125 33,-8.25 50,-12.5c0.386,-49.149 0.682,-98.298 0.864,-147.448c0.087,-22.822 0.205,-45.643 0.394,-68.464c0.181,-22.018 0.281,-44.036 0.324,-66.055c0.031,-8.406 0.091,-16.812 0.181,-25.218c0.121,-11.762 0.138,-23.521 0.13,-35.284c0.06,-3.486 0.12,-6.971 0.182,-10.562c-0.109,-15.274 -0.593,-24.184 -9.968,-36.547c-9.081,-6.475 -15.606,-9.289 -26.481,-11.464c-5.156,-1.031 -10.312,-2.062 -15.625,-3.125l0,-33.333Z" style="fill:#fff;fill-rule:nonzero;"/><path d="M3454.167,854.167l225,0l0,33.333c-3.212,0.709 -6.424,1.418 -9.733,2.148c-6.268,1.515 -6.268,1.515 -12.663,3.06c-4.157,0.967 -8.314,1.934 -12.598,2.93c-10.916,3.296 -10.916,3.296 -15.608,10.786c-5.189,14.907 -4.793,29.547 -4.775,45.146c-0.028,3.511 -0.056,7.023 -0.085,10.64c-0.079,11.598 -0.095,23.196 -0.104,34.794c-0.027,8.064 -0.055,16.127 -0.084,24.191c-0.05,16.896 -0.065,33.793 -0.06,50.689c0.001,21.662 -0.113,43.322 -0.256,64.984c-0.093,16.65 -0.11,33.299 -0.105,49.949c-0.01,7.987 -0.047,15.975 -0.111,23.962c-0.082,11.162 -0.058,22.32 -0.007,33.482c-0.07,4.955 -0.07,4.955 -0.142,10.011c0.17,14.846 0.885,23.211 10.012,35.192c9.753,7.04 16.823,9.495 28.613,11.576c3.33,0.623 6.66,1.246 10.091,1.888c2.514,0.408 5.027,0.816 7.617,1.237l0,33.333l-225,0l0,-33.333c15.125,-4.125 30.25,-8.25 45.833,-12.5c10.233,-35.812 9.547,-71.165 9.44,-108.057c0.006,-6.853 0.014,-13.706 0.024,-20.559c0.012,-14.313 -0.005,-28.626 -0.045,-42.939c-0.047,-18.244 -0.02,-36.487 0.03,-54.731c0.03,-14.138 0.02,-28.276 -0.001,-42.414c-0.006,-6.722 0.001,-13.445 0.021,-20.167c0.08,-35.217 -0.868,-68.396 -9.469,-102.8c-15.125,-4.125 -30.25,-8.25 -45.833,-12.5l0,-33.333Z" style="fill:#fff;fill-rule:nonzero;"/><path d="M4908.333,1603.385c3.491,-0.051 6.982,-0.102 10.579,-0.155c34.253,-0.08 63.783,3.621 91.878,24.211c13.274,13.311 15.594,26.578 16.032,44.954c-0.237,16.102 -1.385,25.982 -11.719,38.542c-10.938,9.896 -10.938,9.896 -19.271,14.062c2.358,2.009 4.716,4.018 7.145,6.087c3.056,2.632 6.112,5.264 9.261,7.975c3.045,2.61 6.091,5.221 9.229,7.91c9.995,9.34 11.665,13.48 13.005,27.165c1.411,47.174 1.411,47.174 -15.299,66.032c-43.124,36.602 -107.372,34.082 -160.84,30.664c-9.625,-1.375 -19.25,-2.75 -29.167,-4.167l0,-258.333c27.089,-3.01 52.177,-4.927 79.167,-4.948Zm-8.333,54.948l0,45.833c26.67,2.116 26.67,2.116 50,-8.333c4.874,-9.786 4.874,-9.786 4.167,-20.833c-5.265,-10.488 -5.265,-10.488 -16.667,-16.667c-12.843,-1.39 -24.512,-0.764 -37.5,0Zm0,100l0,58.333c30.069,0.855 30.069,0.855 54.167,-12.5c5.179,-14.37 5.179,-14.37 4.167,-29.167c-7.355,-11.033 -12.212,-12.404 -25,-16.667c-5.81,-0.278 -11.632,-0.356 -17.448,-0.26c-5.242,0.086 -10.484,0.172 -15.885,0.26Z" style="fill:#fff;fill-rule:nonzero;"/><path d="M6154.167,1608.333l70.833,0l0,91.667l79.167,0l0,-91.667l75,0l0,258.333l-75,0l0,-100l-79.167,0l0,100l-70.833,0l0,-258.333Z" style="fill:#fff;fill-rule:nonzero;"/><path d="M5412.5,1683.333c2.75,-2.75 5.5,-5.5 8.333,-8.333c10.753,-0.604 21.039,-0.778 31.771,-0.521c2.943,0.038 5.887,0.075 8.919,0.114c7.271,0.098 14.54,0.248 21.81,0.407c-0.068,28.316 -0.298,56.627 -0.636,84.941c-0.096,9.617 -0.156,19.235 -0.179,28.853c-0.039,13.883 -0.21,27.76 -0.406,41.642c0.025,6.376 0.025,6.376 0.05,12.881c-0.596,29.759 -7.185,52.6 -23.829,77.516c-25.076,21.805 -54.522,26.552 -86.979,26.302c-2.903,-0.005 -5.806,-0.011 -8.797,-0.016c-23.226,-0.432 -41.34,-4.693 -62.557,-13.786c2.142,-20.705 5.141,-38.709 12.5,-58.333c2.97,0.951 5.94,1.901 9.001,2.881c32.637,9.869 32.637,9.869 65.999,5.452c10.343,-7.209 10.343,-7.209 16.667,-16.667l0,-12.5c-4.039,2.148 -8.078,4.297 -12.24,6.51c-21.471,9.109 -40.901,6.584 -62.565,-1.042c-20.909,-10.182 -32.071,-26.42 -41.862,-47.135c-10.473,-32.419 -6.995,-68.537 6.95,-99.186c11.688,-19.263 26.781,-30.432 46.956,-39.876c27.489,-5.61 46.386,-4.929 71.094,9.896Zm-47.135,53.646c-9.671,17.909 -10.64,34.694 -7.031,54.688c6.216,9.963 9.831,15.461 20.573,20.312c10.867,0.659 16.225,-1.893 25.26,-7.812c5.606,-11.213 5.025,-20.299 5.208,-32.812c0.107,-4.372 0.215,-8.744 0.326,-13.249c-1.525,-13.685 -4.262,-19.242 -13.867,-28.939c-14.388,-3.32 -18.99,-1.495 -30.469,7.812Z" style="fill:#fff;fill-rule:nonzero;"/><path d="M3533.333,1608.333l170.833,0l0,58.333l-95.833,0l0,41.667l91.667,0l0,62.5l-91.667,0l0,95.833l-75,0l0,-258.333Z" style="fill:#fff;fill-rule:nonzero;"/><path d="M4129.167,1675l75,0c0.204,8.578 0.408,17.155 0.618,25.993c0.232,8.315 0.464,16.631 0.704,24.946c0.159,5.775 0.305,11.55 0.435,17.326c0.19,8.306 0.436,16.611 0.684,24.916c0.196,7.495 0.196,7.495 0.397,15.142c0.43,13.256 0.43,13.256 9.662,25.011c13.711,-1.579 13.711,-1.579 25,-8.333c0.661,-9.237 1.047,-18.494 1.318,-27.751c0.087,-2.769 0.173,-5.537 0.262,-8.39c0.273,-8.873 0.518,-17.746 0.763,-26.62c0.18,-6.003 0.362,-12.006 0.545,-18.009c0.45,-14.743 0.863,-29.486 1.278,-44.23l75,0l0,191.667l-62.5,0c-2.75,-4.125 -5.5,-8.25 -8.333,-12.5c-2.492,1.977 -4.984,3.953 -7.552,5.99c-20.19,14.421 -43.597,13.168 -67.448,10.677c-22.263,-11.132 -33.982,-23.009 -41.96,-46.419c-6.826,-28.294 -4.742,-57.998 -4.395,-86.914c0.042,-6.071 0.08,-12.142 0.114,-18.213c0.084,-14.764 0.247,-29.523 0.407,-44.287Z" style="fill:#fff;fill-rule:nonzero;"/><path d="M3737.5,1675l75,0c0.204,8.578 0.408,17.155 0.618,25.993c0.232,8.315 0.464,16.631 0.704,24.946c0.159,5.775 0.305,11.55 0.435,17.326c0.19,8.306 0.436,16.611 0.684,24.916c0.196,7.495 0.196,7.495 0.397,15.142c0.43,13.256 0.43,13.256 9.662,25.011c13.711,-1.579 13.711,-1.579 25,-8.333c0.661,-9.237 1.047,-18.494 1.318,-27.751c0.087,-2.769 0.173,-5.537 0.262,-8.39c0.273,-8.873 0.518,-17.746 0.763,-26.62c0.18,-6.003 0.362,-12.006 0.545,-18.009c0.45,-14.743 0.863,-29.486 1.278,-44.23l75,0l0,191.667l-62.5,0l0,-16.667c-5.801,3.996 -5.801,3.996 -11.719,8.073c-23.139,14.972 -44.681,15.573 -71.615,12.76c-16.442,-8.221 -28.712,-17.075 -37.5,-33.333c-9.894,-33.945 -9.293,-67.319 -8.854,-102.344c0.042,-5.851 0.08,-11.702 0.114,-17.554c0.098,-14.201 0.247,-28.402 0.407,-42.603Z" style="fill:#fff;fill-rule:nonzero;"/><path d="M3050,1675l70.833,0c0.252,8.277 0.505,16.554 0.765,25.081c0.261,8.026 0.522,16.052 0.786,24.077c0.269,8.312 0.519,16.625 0.768,24.938c0.175,5.223 0.349,10.447 0.529,15.828c0.153,4.822 0.305,9.644 0.463,14.613c0.369,12.397 0.369,12.397 5.022,24.629c9.988,2.832 9.988,2.832 20.833,4.167c11.787,-11.787 9.643,-19.997 10.059,-36.491c0.081,-2.763 0.161,-5.525 0.245,-8.372c0.249,-8.83 0.442,-17.66 0.634,-26.491c0.159,-5.984 0.322,-11.968 0.488,-17.952c0.407,-14.675 0.739,-29.349 1.074,-44.027l75,0l0,191.667l-62.5,0c-1.375,-5.5 -2.75,-11 -4.167,-16.667c-3.18,2.664 -6.359,5.328 -9.635,8.073c-20.387,15.646 -40.636,14.77 -65.365,12.76c-19.788,-5.974 -30.756,-16.17 -41.497,-33.87c-10.155,-28.013 -6.394,-59.666 -5.639,-89.046c0.105,-7.075 0.2,-14.149 0.285,-21.224c0.21,-17.238 0.618,-34.454 1.017,-51.693Z" style="fill:#fff;fill-rule:nonzero;"/><path d="M5822.135,1690.885c15.759,20.428 16.539,42.633 16.178,67.546c-0.012,3.109 -0.024,6.218 -0.036,9.421c-0.046,9.849 -0.151,19.695 -0.257,29.543c-0.042,6.711 -0.08,13.422 -0.114,20.133c-0.084,16.38 -0.248,32.757 -0.407,49.137l-70.833,0c-0.204,-7.928 -0.408,-15.855 -0.618,-24.023c-0.313,-10.395 -0.627,-20.79 -0.944,-31.185c-0.129,-5.226 -0.258,-10.452 -0.391,-15.837c-0.161,-5.022 -0.322,-10.044 -0.488,-15.218c-0.131,-4.626 -0.262,-9.252 -0.397,-14.018c-1.297,-11.928 -2.838,-19.082 -9.662,-28.886c-4.125,-1.375 -8.25,-2.75 -12.5,-4.167c-11.575,9.397 -16.251,14.364 -18.941,29.268c-0.131,7.201 -0.131,7.201 -0.264,14.547c-0.134,5.21 -0.269,10.42 -0.407,15.788c-0.089,8.137 -0.089,8.137 -0.179,16.439c-0.185,8.234 -0.185,8.234 -0.374,16.634c-0.295,13.551 -0.49,27.104 -0.667,40.658l-70.833,0c-1.375,-63.25 -2.75,-126.5 -4.167,-191.667l66.667,0c1.375,5.5 2.75,11 4.167,16.667c3.094,-2.664 6.188,-5.328 9.375,-8.073c30.259,-22.694 67.312,-15.267 96.094,7.292Z" style="fill:#fff;fill-rule:nonzero;"/><path d="M2980.469,1692.448c22.727,23.785 32.413,49.674 32.031,82.552c-2.235,30.576 -11.35,53.317 -33.333,75c-30.411,22.66 -63.172,24.558 -100,20.833c-31.665,-9.901 -51.98,-26.371 -67.708,-55.469c-9.434,-33.805 -10.694,-68.009 6.006,-99.821c16.495,-24.226 35.969,-35.19 63.525,-43.669c37.434,-3.652 67.467,-0.567 99.479,20.573Zm-87.207,37.484c-12.097,15.89 -15.361,38.562 -13.037,58.154c3.251,12.186 6.639,19.611 15.609,28.581c12.324,2.084 12.324,2.084 25,0c12.956,-10.722 15.372,-24.275 17.008,-40.674c-0.611,-16.66 -6.575,-31.531 -12.842,-46.826c-16.645,-5.034 -16.645,-5.034 -31.738,0.765Z" style="fill:#fff;fill-rule:nonzero;"/><path d="M2595.833,1608.333l83.333,0c4.641,11.086 12.855,30.71 14.648,34.993c7.762,18.832 15.287,37.761 22.852,56.673c11,-30.25 22,-60.5 33.333,-91.667l83.333,0c-4.555,9.367 -9.109,18.734 -13.802,28.385c-2.352,4.878 -2.352,4.878 -4.751,9.855c-8.068,16.325 -16.634,31.577 -27.053,46.525c-38.225,56.202 -39.874,106.623 -37.728,173.568l-75,0c0.781,-9.338 0.781,-9.338 1.579,-18.864c3.595,-84.921 -27.977,-143.212 -69.67,-214.647c-6.909,-12.322 -6.909,-12.322 -11.076,-24.822Z" style="fill:#fff;fill-rule:nonzero;"/><path d="M6940.69,1681.966c19.489,11.585 27.206,27.568 35.612,47.982c2.865,15.885 2.865,15.885 2.865,65.885c-55.688,2.062 -55.688,2.062 -112.5,4.167c11.057,11.057 19.355,12.179 34.717,13.053c20.824,-0.066 40.593,-1.151 61.117,-4.72c2.75,16.5 5.5,33 8.333,50c-39.413,16.891 -86.662,20.36 -127.604,5.99c-23.558,-11.224 -37.235,-27.608 -48.958,-50.521c-7.123,-37.751 -5.633,-72.176 14.827,-105.062c32.087,-42.995 85.272,-47.201 131.592,-26.774Zm-71.419,46.419c-7.599,8.337 -7.599,8.337 -6.771,17.448l50,0c-2.75,-6.875 -5.5,-13.75 -8.333,-20.833c-15.549,-5.746 -21.498,-6.839 -34.896,3.385Z" style="fill:#fff;fill-rule:nonzero;"/><path d="M6578.125,1690.104c22.379,23.622 27.051,46.77 27.083,78.906c-0.344,8.852 -0.688,17.703 -1.042,26.823c-55.688,2.062 -55.688,2.062 -112.5,4.167c22.918,12.24 22.918,12.24 45.573,13.542c3.55,-0.107 7.101,-0.215 10.758,-0.326c13.358,-0.926 26.311,-2.589 39.502,-4.883c2.75,16.5 5.5,33 8.333,50c-40.73,17.15 -88.413,20.641 -130.029,3.776c-23.452,-11.854 -33.691,-26.648 -44.971,-49.609c-9.982,-32.443 -4.502,-65.111 8.333,-95.833c12.955,-22.209 33.628,-36.712 58.122,-44.124c33.85,-6.77 61.589,0.279 90.837,17.562Zm-83.854,38.281c-7.599,8.337 -7.599,8.337 -6.771,17.448l50,0c-2.75,-6.875 -5.5,-13.75 -8.333,-20.833c-15.549,-5.746 -21.498,-6.839 -34.896,3.385Z" style="fill:#fff;fill-rule:nonzero;"/><path d="M4670.833,1683.333c17.846,15.67 27.306,31.091 33.333,54.167c1.045,19.52 0.369,38.766 0,58.333c-55.688,2.062 -55.688,2.062 -112.5,4.167c22.918,12.24 22.918,12.24 45.573,13.542c3.55,-0.107 7.101,-0.215 10.758,-0.326c13.358,-0.926 26.311,-2.589 39.502,-4.883c2.75,16.5 5.5,33 8.333,50c-40.702,17.138 -88.454,20.686 -130.029,3.76c-24.309,-12.234 -36.354,-28.42 -44.971,-53.76c-7.628,-34.717 -3.714,-64.548 12.793,-95.996c13.822,-21.512 30.942,-32.727 55.436,-40.462c29.013,-2.763 55.934,-3.989 81.771,11.458Zm-76.302,47.656c-7.413,9.126 -7.413,9.126 -7.031,14.844l50,0c-6.054,-19.101 -6.054,-19.101 -12.5,-25c-15.657,-2.539 -19.29,-1.627 -30.469,10.156Z" style="fill:#fff;fill-rule:nonzero;"/><path d="M5220.833,1683.333c15.959,14.331 27.031,29.373 33.333,50c0.573,11.063 0.793,21.532 0.521,32.552c-0.172,9.883 -0.344,19.766 -0.521,29.948l-112.5,0c12.271,12.271 17.328,16.211 34.31,17.22c20.961,-0.065 40.865,-1.127 61.523,-4.72c10.119,35.119 10.119,35.119 4.167,54.167c-38.702,12.638 -86.825,15.956 -125.277,0.765c-19.982,-12.231 -37.353,-32.939 -45.557,-54.932c-2.846,-30.581 -6.037,-66.096 10.856,-93.018c34.824,-41.848 89.178,-61.962 139.144,-31.982Zm-76.302,47.656c-7.413,9.126 -7.413,9.126 -7.031,14.844l50,0c-2.618,-16.548 -2.618,-16.548 -12.5,-25c-15.692,-2.891 -19.277,-1.64 -30.469,10.156Z" style="fill:#fff;fill-rule:nonzero;"/><path d="M6020.833,1683.333c-2.75,16.5 -5.5,33 -8.333,50c-12.75,-2.441 -25.499,-4.883 -38.249,-7.324c-3.878,-0.333 -7.756,-0.666 -11.751,-1.009c-2.75,2.75 -5.5,5.5 -8.333,8.333c4.018,1.815 8.035,3.631 12.174,5.501c5.319,2.503 10.635,5.01 15.951,7.52c2.643,1.182 5.285,2.363 8.008,3.581c18.978,9.094 28.919,18.335 38.867,37.565c3.633,17.421 1.947,32.888 -4.948,49.219c-15.473,18.675 -30.142,27.649 -53.385,34.115c-34.413,3.106 -63.914,0.708 -95.833,-12.5c4.125,-17.875 8.25,-35.75 12.5,-54.167c7.047,2.062 14.094,4.125 21.354,6.25c16.984,4.668 31.736,7.689 49.479,6.25l0,-12.5c-2.718,-0.709 -5.436,-1.418 -8.236,-2.148c-27.144,-7.527 -49.379,-14.462 -66.504,-38.216c-5.94,-18.52 -5.988,-32.697 -0.26,-51.302c10.155,-18.756 23.066,-29.745 42.969,-37.24c34.664,-9.348 61.393,-4.551 94.531,8.073Z" style="fill:#fff;fill-rule:nonzero;"/><path d="M4054.167,1620.833l0,54.167l41.667,0l0,54.167l-41.667,0c0.587,10.158 1.198,20.313 1.823,30.469c0.164,2.876 0.328,5.752 0.496,8.716c0.803,12.78 1.944,23.606 6.014,35.815c14.438,2.062 14.438,2.062 29.167,4.167l0,58.333c-24.618,8.206 -52.512,7.377 -77.083,-0.521c-17.274,-12.956 -27.257,-28.351 -31.25,-49.479c-0.33,-6.916 -0.449,-13.844 -0.407,-20.768c0.02,-5.841 0.02,-5.841 0.041,-11.8c0.035,-4.034 0.07,-8.067 0.106,-12.223c0.019,-4.098 0.038,-8.196 0.057,-12.419c0.049,-10.097 0.118,-20.193 0.203,-30.29l-20.833,0l0,-54.167l20.833,0l0,-37.5c11.023,-2.784 22.047,-5.561 33.073,-8.333c3.145,-0.795 6.29,-1.59 9.53,-2.409c23.592,-5.924 23.592,-5.924 28.231,-5.924Z" style="fill:#fff;fill-rule:nonzero;"/><path d="M3412.5,1670.833l0,70.833c-9.359,0.678 -18.717,1.356 -28.076,2.035c-11.576,2.619 -14.798,5.194 -21.924,14.632c-2.109,11.679 -2.109,11.679 -2.132,24.919c-0.148,4.847 -0.295,9.695 -0.448,14.689c-0.094,5.062 -0.188,10.125 -0.285,15.34c-0.142,5.111 -0.285,10.221 -0.431,15.487c-0.344,12.632 -0.614,25.265 -0.871,37.899l-75,0l0,-191.667l62.5,0l0,20.833c1.96,-1.456 3.921,-2.911 5.941,-4.411c2.594,-1.896 5.188,-3.792 7.861,-5.745c2.562,-1.885 5.124,-3.771 7.764,-5.713c15.911,-10.392 25.156,-9.131 45.101,-9.131Z" style="fill:#fff;fill-rule:nonzero;"/><path d="M4495.833,1670.833l0,70.833c-9.359,0.678 -18.717,1.356 -28.076,2.035c-11.576,2.619 -14.798,5.194 -21.924,14.632c-2.109,11.679 -2.109,11.679 -2.132,24.919c-0.148,4.847 -0.295,9.695 -0.448,14.689c-0.094,5.062 -0.188,10.125 -0.285,15.34c-0.142,5.111 -0.285,10.221 -0.431,15.487c-0.344,12.632 -0.614,25.265 -0.871,37.899l-75,0l0,-191.667l62.5,0c1.375,6.875 2.75,13.75 4.167,20.833c3.953,-3.352 7.906,-6.703 11.979,-10.156c18.696,-15.851 22.305,-14.844 50.521,-14.844Z" style="fill:#fff;fill-rule:nonzero;"/><path d="M6770.833,1670.833l0,70.833c-6.617,0.258 -13.234,0.516 -20.052,0.781c-11.26,-0.007 -11.26,-0.007 -21.615,3.385c-11.138,14.998 -14.137,26.242 -14.632,44.743c-0.148,4.445 -0.295,8.889 -0.448,13.468c-0.094,4.595 -0.188,9.19 -0.285,13.924c-0.142,4.676 -0.285,9.351 -0.431,14.168c-0.343,11.508 -0.614,23.019 -0.871,34.53l-70.833,0l0,-191.667l62.5,0c1.375,6.875 2.75,13.75 4.167,20.833c3.18,-3.352 6.359,-6.703 9.635,-10.156c18.519,-17.657 25.547,-14.844 52.865,-14.844Z" style="fill:#fff;fill-rule:nonzero;"/><rect x="5529.167" y="1675" width="70.833" height="191.667" style="fill:#fff;fill-rule:nonzero;"/><path d="M5579.167,1591.667c12.24,5.99 12.24,5.99 20.833,16.667c2.434,12.843 2.826,24.714 0,37.5c-9.089,12.147 -12.978,12.608 -28.646,16.146c-16.195,1.521 -25.181,-1.474 -38.021,-11.979c-6.704,-13.409 -6.66,-27.164 -4.167,-41.667c14.552,-17.638 27.812,-19.836 50,-16.667Z" style="fill:#fff;fill-rule:nonzero;"/></svg>